<?xml version="1.0" encoding="UTF-8"?>
<svg version="1.1" xmlns="http://www.w3.org/2000/svg" width="1280" height="1280">
<path d="M0 0 C422.4 0 844.8 0 1280 0 C1280 422.4 1280 844.8 1280 1280 C857.6 1280 435.2 1280 0 1280 C0 857.6 0 435.2 0 0 Z " fill="#1b1b1c" transform="translate(0,0)"/>
<path d="M0 0 C5.24827615 3.06731766 10.51957218 6.09482932 15.78710938 9.12890625 C23.29087655 13.45575382 30.79232898 17.78651059 38.28710938 22.12890625 C53.78511036 31.10613935 69.28859433 40.0737514 84.84960938 48.94140625 C91.59948373 52.78927059 98.31581491 56.68782001 105.00439453 60.64111328 C114.75561914 66.39530573 124.58035145 72.02322362 134.39208984 77.67333984 C139.85880917 80.82222679 145.32285825 83.97573889 150.78710938 87.12890625 C152.95376248 88.37892975 155.12042917 89.62892972 157.28710938 90.87890625 C161.62044271 93.37890625 165.95377604 95.87890625 170.28710938 98.37890625 C171.35977051 98.99773682 172.43243164 99.61656738 173.53759766 100.25415039 C175.70268008 101.50326143 177.8677192 102.75244754 180.03271484 104.00170898 C185.47326643 107.14092934 190.91458153 110.27881188 196.35742188 113.4140625 C201.76584601 116.52974577 207.17093091 119.65116581 212.57470703 122.77490234 C215.81323591 124.6439849 219.05593913 126.50568245 222.29882812 128.3671875 C253.58949898 146.38491729 278.74704969 166.77186993 289.01367188 202.7890625 C292.21513635 214.77124939 292.96042081 226.11282808 292.91210938 238.50390625 C292.9098938 239.15839752 292.90767822 239.81288879 292.90539551 240.48721313 C292.88693037 245.20143372 292.84229802 249.91497423 292.78710938 254.62890625 C292.76825684 256.32781006 292.76825684 256.32781006 292.74902344 258.06103516 C291.52724702 340.88002227 274.81919126 424.8488561 230.93066406 530.31176758 C230.00914405 532.17900635 229.16961975 534.08658667 228.35742188 536.00390625 C222.0908991 550.46990907 214.261755 564.51867579 205.88623047 577.87207031 C204.71160943 579.74958541 203.5553067 581.63765009 202.40039062 583.52734375 C186.47105654 609.474354 168.05702114 633.53659209 147.34960938 655.84375 C145.05294832 658.3399685 142.82553754 660.88243202 140.59960938 663.44140625 C134.71034312 670.00735659 128.17585178 675.9143355 121.68945312 681.87939453 C120.00887782 683.42495442 118.33448849 684.97683726 116.66210938 686.53125 C110.90073881 691.84251349 104.99677077 696.85102666 98.78710938 701.62890625 C98.13726074 702.13486328 97.48741211 702.64082031 96.81787109 703.16210938 C44.65932997 743.66140897 -22.26247025 786.95440801 -91.17578125 780.34472656 C-127.77061198 775.30787348 -162.7357189 755.3448988 -193.21289062 735.62890625 C-194.77716797 734.6234375 -194.77716797 734.6234375 -196.37304688 733.59765625 C-199.34694942 731.64643386 -202.28515764 729.64829522 -205.21289062 727.62890625 C-206.05110352 727.05237305 -206.88931641 726.47583984 -207.75292969 725.88183594 C-218.72198873 718.32686391 -229.67512174 710.77921187 -240.21289062 702.62890625 C-241.60860576 701.5636472 -243.00445003 700.49855733 -244.40039062 699.43359375 C-256.62674896 690.06227367 -268.72004348 680.47419974 -279.45507812 669.390625 C-281.32283412 667.51871844 -283.27193628 665.79181465 -285.27539062 664.06640625 C-291.07642651 659.05848074 -296.28185713 653.65096195 -301.27539062 647.84375 C-303.47585516 645.32829961 -305.75088312 642.89005573 -308.02539062 640.44140625 C-313.47306323 634.45143139 -318.42412091 628.14826233 -323.21289062 621.62890625 C-323.92082764 620.66573486 -323.92082764 620.66573486 -324.64306641 619.68310547 C-332.43333231 609.01421937 -339.52294777 598.01648922 -346.21289062 586.62890625 C-346.69226074 585.81437988 -347.17163086 584.99985352 -347.66552734 584.16064453 C-391.38815952 509.53088298 -419.73436774 425.38391879 -436.21289062 293.62890625 C-436.30787842 292.48131836 -436.40286621 291.33373047 -436.50073242 290.15136719 C-437.43947252 277.51858345 -437.46947028 264.8657526 -437.50805664 252.203125 C-437.51959715 249.57383858 -437.54008123 246.94457595 -437.56958008 244.31542969 C-437.96618365 208.80279258 -429.94965198 180.02202181 -404.90039062 153.87890625 C-391.34939326 140.76503783 -373.76422403 132.02500921 -357.45532227 122.84643555 C-340.50604676 113.30363532 -323.69940992 103.51176567 -306.90942383 93.69213867 C-299.60490264 89.42547628 -292.26317687 85.22761268 -284.90576172 81.05297852 C-277.66725389 76.92871243 -270.52880167 72.64586844 -263.43066406 68.28466797 C-262.24972168 67.56561279 -262.24972168 67.56561279 -261.04492188 66.83203125 C-260.00428589 66.19249512 -260.00428589 66.19249512 -258.94262695 65.54003906 C-257.21289062 64.62890625 -257.21289062 64.62890625 -255.21289062 64.62890625 C-255.21191382 65.26120415 -255.21093701 65.89350205 -255.2099306 66.5449605 C-255.15137268 104.20803916 -255.0773642 141.87105901 -254.98390434 179.53406778 C-254.9726392 184.07902669 -254.96150026 188.6239859 -254.95043945 193.16894531 C-254.94713393 194.52589887 -254.94713393 194.52589887 -254.94376162 195.91026562 C-254.9086052 210.46525137 -254.88361979 225.02023708 -254.86254361 239.57524925 C-254.84060732 254.56396027 -254.8073925 269.55261727 -254.76418906 284.54128218 C-254.74029869 292.93744529 -254.72131066 301.33355504 -254.71527672 309.72975159 C-254.6405325 403.59424957 -247.47044932 491.11983901 -162.47851562 602.1171875 C-160.60394447 604.19537586 -158.77146358 606.29927069 -156.94335938 608.41796875 C-153.21941045 612.68123791 -149.28853209 616.7014845 -145.27539062 620.69140625 C-144.61087891 621.35978516 -143.94636719 622.02816406 -143.26171875 622.71679688 C-139.30624759 626.66459496 -135.24111342 630.42640869 -131.01000977 634.0769043 C-128.76921488 636.01206706 -126.58552697 638.00628598 -124.40039062 640.00390625 C-119.15390962 644.73618391 -113.71416228 649.19776669 -108.21289062 653.62890625 C-107.40078125 654.29792969 -106.58867188 654.96695313 -105.75195312 655.65625 C-89.77778915 669.36047633 -89.77778915 669.36047633 -70.02929688 674.15234375 C-58.28892764 671.97036112 -48.93548092 663.62337592 -40.07861328 656.17529297 C-37.07796665 653.68823516 -33.98433368 651.32364907 -30.90039062 648.94140625 C-25.09890507 644.41892488 -19.62872441 639.60767275 -14.21289062 634.62890625 C-12.88366682 633.4575596 -11.55050655 632.29066032 -10.21289062 631.12890625 C-8.87906264 629.96280514 -7.54575024 628.79611409 -6.21289062 627.62890625 C-5.46652344 626.97664062 -4.72015625 626.324375 -3.95117188 625.65234375 C1.76920368 620.58598858 7.19283056 615.29156342 12.49682617 609.79443359 C13.89080298 608.36966827 15.33505223 606.99443092 16.78710938 605.62890625 C17.44710938 605.62890625 18.10710937 605.62890625 18.78710938 605.62890625 C19.03332031 605.05269531 19.27953125 604.47648438 19.53320312 603.8828125 C20.98873037 601.26649095 22.67319668 599.61998789 24.84960938 597.56640625 C29.03868188 593.47086965 32.73932565 589.15738591 36.39648438 584.5859375 C38.54681942 581.92612765 40.74740338 579.32583475 42.97875977 576.73461914 C47.97049457 570.92495743 52.53421373 565.00824971 56.78710938 558.62890625 C57.67686181 557.33403541 58.56757064 556.03982148 59.45898438 554.74609375 C86.82174952 514.74289624 104.66774892 471.0276182 109.78710938 422.62890625 C109.87525406 421.83015579 109.96339874 421.03140533 110.05421448 420.20845032 C111.01135937 410.38804087 110.93221169 400.5822737 110.91992188 390.7265625 C110.92059755 388.79861946 110.92156976 386.87067651 110.92282104 384.94273376 C110.92428879 380.91257919 110.92217541 376.88244689 110.91748047 372.85229492 C110.9118185 367.74964374 110.9150456 362.64704559 110.92105293 357.5443964 C110.92471339 353.56234864 110.92349458 349.58031287 110.92092514 345.59826469 C110.92026911 343.72047354 110.92103656 341.84268121 110.92340469 339.96489143 C110.93311258 330.09630603 110.808782 320.24503402 110.38818359 310.38452148 C110.33952746 309.11961553 110.33952746 309.11961553 110.28988838 307.82915592 C109.71889703 295.9488406 107.26826102 283.76411965 100.78710938 273.62890625 C100.40425781 273.02175781 100.02140625 272.41460938 99.62695312 271.7890625 C94.88090985 265.38843533 87.50060621 261.66159739 80.78710938 257.62890625 C80.03026855 257.17354492 79.27342773 256.71818359 78.49365234 256.24902344 C75.17248523 254.25402385 71.84912404 252.26282297 68.52050781 250.28027344 C62.75768811 246.84078684 57.06928115 243.30154375 51.41210938 239.69140625 C36.58922471 230.26726695 21.6140798 221.0906353 5.72900391 213.55712891 C3.69471354 212.58474118 1.67649371 211.58326107 -0.34179688 210.578125 C-38.25023319 191.91503873 -80.92515508 187.59171407 -121.11010742 201.23901367 C-137.49782362 207.07064911 -152.56630543 215.13623058 -167.47705078 224.00878906 C-172.40969683 226.92981701 -177.36979581 229.80346076 -182.3319397 232.67398071 C-184.05480048 233.6722333 -185.77486653 234.67530427 -187.49487305 235.6784668 C-188.55424072 236.29246338 -189.6136084 236.90645996 -190.70507812 237.5390625 C-191.64722168 238.08699463 -192.58936523 238.63492676 -193.56005859 239.19946289 C-196.21289062 240.62890625 -196.21289062 240.62890625 -201.21289062 242.62890625 C-201.21289062 173.32890625 -201.21289062 104.02890625 -201.21289062 32.62890625 C-187.35289062 24.70890625 -187.35289062 24.70890625 -173.21289062 16.62890625 C-159.52692465 8.65844595 -159.52692465 8.65844595 -145.85693359 0.66064453 C-143.54739913 -0.69378407 -141.23588832 -2.04473315 -138.92236328 -3.39233398 C-136.738336 -4.66454479 -134.55680196 -5.94105069 -132.37841797 -7.22290039 C-122.15348399 -13.1630456 -111.88331309 -18.41385856 -100.33789062 -21.18359375 C-99.54898437 -21.38662109 -98.76007813 -21.58964844 -97.94726562 -21.79882812 C-61.97969594 -30.85046734 -30.63881484 -17.97415844 0 0 Z " fill="#FEFEFE" transform="translate(712.212890625,261.37109375)"/>
<path d="M0 0 C3.51716993 1.31928086 6.65308518 2.87348391 9.86328125 4.8203125 C11.19262695 5.62275391 11.19262695 5.62275391 12.54882812 6.44140625 C13.9168457 7.27478516 13.9168457 7.27478516 15.3125 8.125 C16.24384766 8.68832031 17.17519531 9.25164063 18.13476562 9.83203125 C20.42521142 11.2180446 22.71352076 12.60745628 25 14 C24.34 15.32 23.68 16.64 23 18 C21.35 17.34 19.7 16.68 18 16 C18 15.34 18 14.68 18 14 C17.34 14 16.68 14 16 14 C15.67 14.99 15.34 15.98 15 17 C14.6596875 15.329375 14.6596875 15.329375 14.3125 13.625 C13.43183938 9.90838548 13.43183938 9.90838548 10.8125 8.875 C9.884375 8.58625 8.95625 8.2975 8 8 C5.58152535 6.43451434 3.31219154 4.72280938 1 3 C0.67 3.99 0.34 4.98 0 6 C-0.66 6 -1.32 6 -2 6 C-1.125 1.125 -1.125 1.125 0 0 Z " fill="#101012" transform="translate(778,510)"/>
<path d="M0 0 C-0.33 0.99 -0.66 1.98 -1 3 C-0.34 3 0.32 3 1 3 C-0.48465587 7.39458137 -3.81320768 9.05088905 -7.625 11.25 C-8.54152344 11.79527344 -8.54152344 11.79527344 -9.4765625 12.3515625 C-10.97893727 13.24359752 -12.48876551 14.12305829 -14 15 C-14.99 14.34 -15.98 13.68 -17 13 C-17 12.34 -17 11.68 -17 11 C-14 10 -14 10 -12 10 C-9.83333333 8.16666667 -9.83333333 8.16666667 -8 6 C-8 5.34 -8 4.68 -8 4 C-8 3.01 -8 2.02 -8 1 C-5.29120665 -0.35439668 -2.99066732 -0.06501451 0 0 Z " fill="#F1F3F2" transform="translate(785,976)"/>
<path d="M0 0 C0.66 0.66 1.32 1.32 2 2 C0.48352301 3.51647699 -1.01806702 5.01598236 -2.625 6.4375 C-4.22320509 8.25364215 -4.59344055 9.64195518 -5 12 C-8.66305234 12.74926071 -11.42355152 13.2380014 -15 12 C-13.69881926 8.09645778 -12.09616418 7.54661944 -8.625 5.4375 C-7.64789062 4.83808594 -6.67078125 4.23867188 -5.6640625 3.62109375 C-4.78492188 3.08613281 -3.90578125 2.55117188 -3 2 C-2.01 1.34 -1.02 0.68 0 0 Z " fill="#07080A" transform="translate(788,979)"/>
<path d="M0 0 C0.99 0.99 1.98 1.98 3 3 C1.45212498 6.83450856 -0.93722746 9.02555699 -4 11.75 C-4.886875 12.54921875 -5.77375 13.3484375 -6.6875 14.171875 C-9 16 -9 16 -11 16 C-10.67 13.03 -10.34 10.06 -10 7 C-7.69 7.33 -5.38 7.66 -3 8 C-3.33 6.35 -3.66 4.7 -4 3 C-3.34 3 -2.68 3 -2 3 C-1.67 2.34 -1.34 1.68 -1 1 C-0.67 0.67 -0.34 0.34 0 0 Z " fill="#0B0B0B" transform="translate(316,401)"/>
<path d="M0 0 C-4.34086242 5.89117043 -4.34086242 5.89117043 -8 7 C-10.75 6.625 -10.75 6.625 -13 6 C-13 5.34 -13 4.68 -13 4 C-13.66 4 -14.32 4 -15 4 C-15.33 4.99 -15.66 5.98 -16 7 C-16.66 7 -17.32 7 -18 7 C-18 6.01 -18 5.02 -18 4 C-16.22934889 3.35366725 -14.45847247 2.7079517 -12.6875 2.0625 C-11.70136719 1.70285156 -10.71523438 1.34320313 -9.69921875 0.97265625 C-3.7609375 -1.1671875 -3.7609375 -1.1671875 0 0 Z " fill="#F1F1F1" transform="translate(616,241)"/>
<path d="M0 0 C0.639375 0.495 1.27875 0.99 1.9375 1.5 C2.040625 2.634375 2.14375 3.76875 2.25 4.9375 C2.5903125 6.7009375 2.5903125 6.7009375 2.9375 8.5 C6.37733432 10.30765878 6.37733432 10.30765878 9.9375 11.5 C10.2675 12.49 10.5975 13.48 10.9375 14.5 C9.9475 14.995 9.9475 14.995 8.9375 15.5 C8.2775 15.17 7.6175 14.84 6.9375 14.5 C6.6075 15.16 6.2775 15.82 5.9375 16.5 C4.26506577 14.21234889 2.59943073 11.92026108 0.9375 9.625 C0.46054687 8.97402344 -0.01640625 8.32304688 -0.5078125 7.65234375 C-4.0625 2.7265625 -4.0625 2.7265625 -4.0625 0.5 C-2.0625 -0.5 -2.0625 -0.5 0 0 Z " fill="#0F0F11" transform="translate(517.0625,816.5)"/>
<path d="M0 0 C1.18851562 0.00902344 2.37703125 0.01804687 3.6015625 0.02734375 C4.51679688 0.03894531 5.43203125 0.05054688 6.375 0.0625 C5.15474937 3.7232519 4.248509 3.98589441 0.9375 5.75 C0.13441406 6.18699219 -0.66867187 6.62398438 -1.49609375 7.07421875 C-3.625 8.0625 -3.625 8.0625 -5.625 8.0625 C-5.625 7.4025 -5.625 6.7425 -5.625 6.0625 C-6.615 6.3925 -7.605 6.7225 -8.625 7.0625 C-8.625 5.0825 -8.625 3.1025 -8.625 1.0625 C-5.74084117 -0.37957941 -3.20778472 -0.03144887 0 0 Z " fill="#0B0B0D" transform="translate(360.625,375.9375)"/>
<path d="M0 0 C0.144375 0.763125 0.28875 1.52625 0.4375 2.3125 C0.9632594 5.08172908 0.9632594 5.08172908 2 8 C-2.75 9 -2.75 9 -5 9 C-5 8.34 -5 7.68 -5 7 C-5.66 7 -6.32 7 -7 7 C-7.33 7.66 -7.66 8.32 -8 9 C-9.32 9 -10.64 9 -12 9 C-12.66 8.34 -13.32 7.68 -14 7 C-12.04480616 5.82807953 -10.0857461 4.6626071 -8.125 3.5 C-7.03445313 2.8503125 -5.94390625 2.200625 -4.8203125 1.53125 C-2 0 -2 0 0 0 Z " fill="#0C0C0E" transform="translate(542,487)"/>
<path d="M0 0 C2.64 1.32 5.28 2.64 8 4 C8 4.66 8 5.32 8 6 C8.66 6.33 9.32 6.66 10 7 C9.67 7.66 9.34 8.32 9 9 C9.66 9.33 10.32 9.66 11 10 C8 11 8 11 5.30078125 9.78515625 C4.31464844 9.21667969 3.32851563 8.64820313 2.3125 8.0625 C1.31863281 7.49660156 0.32476563 6.93070312 -0.69921875 6.34765625 C-1.45847656 5.90292969 -2.21773437 5.45820313 -3 5 C-2.01 3.35 -1.02 1.7 0 0 Z " fill="#0C0C0E" transform="translate(726,264)"/>
<path d="M0 0 C0.66 0.66 1.32 1.32 2 2 C-3.445 8.435 -3.445 8.435 -9 15 C-9.66 14.01 -10.32 13.02 -11 12 C-10.67 11.195625 -10.34 10.39125 -10 9.5625 C-8.68794746 7.04489517 -8.68794746 7.04489517 -9.875 4.6875 C-10.24625 4.130625 -10.6175 3.57375 -11 3 C-10.278125 3.20625 -9.55625 3.4125 -8.8125 3.625 C-5.51866598 4.06417787 -3.91139797 3.53657115 -1 2 C-0.67 1.34 -0.34 0.68 0 0 Z " fill="#F5F5F5" transform="translate(883,886)"/>
<path d="M0 0 C0.66 0.33 1.32 0.66 2 1 C1.67 1.5775 1.34 2.155 1 2.75 C-0.27075898 5.19883862 -0.27075898 5.19883862 0 9 C-0.99 9.33 -1.98 9.66 -3 10 C-4.30480865 13.26202163 -5.21066812 16.57956185 -6 20 C-7.32 19.67 -8.64 19.34 -10 19 C-10 19.66 -10 20.32 -10 21 C-10.66 20.67 -11.32 20.34 -12 20 C-8.04 13.4 -4.08 6.8 0 0 Z " fill="#1B1C1D" transform="translate(925,826)"/>
<path d="M0 0 C0.99 0.99 1.98 1.98 3 3 C2.34 3 1.68 3 1 3 C0.34 4.98 -0.32 6.96 -1 9 C-1.721875 8.814375 -2.44375 8.62875 -3.1875 8.4375 C-6.12826973 7.98004693 -8.14103058 8.26483643 -11 9 C-11 8.01 -11 7.02 -11 6 C-7.37 4.02 -3.74 2.04 0 0 Z " fill="#F2F2F4" transform="translate(565,263)"/>
<path d="M0 0 C4.95 2.64 9.9 5.28 15 8 C14.01 8.495 14.01 8.495 13 9 C11.86649466 11.01669827 11.86649466 11.01669827 11 13 C9.68 12.67 8.36 12.34 7 12 C7 11.01 7 10.02 7 9 C6.34 8.34 5.68 7.68 5 7 C4.34 6.34 3.68 5.68 3 5 C2.46375 4.505 1.9275 4.01 1.375 3.5 C0 2 0 2 0 0 Z " fill="#F0F2F1" transform="translate(707,259)"/>
<path d="M0 0 C1.27310312 0.93441535 2.543388 1.87267111 3.8125 2.8125 C4.52019531 3.33457031 5.22789062 3.85664062 5.95703125 4.39453125 C7.78531393 5.83128877 9.39896688 7.31815763 11 9 C9.68 9 8.36 9 7 9 C5.989375 9.061875 4.97875 9.12375 3.9375 9.1875 C1 9 1 9 -0.875 7.5 C-1.24625 7.005 -1.6175 6.51 -2 6 C-1.34 4.02 -0.68 2.04 0 0 Z " fill="#060608" transform="translate(466,959)"/>
<path d="M0 0 C-3 2 -3 2 -5 3 C-5.65555119 5.52733235 -5.65555119 5.52733235 -6 8 C-6.99 8.33 -7.98 8.66 -9 9 C-9.99 8.01 -10.98 7.02 -12 6 C-12.33 6.99 -12.66 7.98 -13 9 C-14.32 8.01 -15.64 7.02 -17 6 C-15.11542462 4.79471335 -13.21682415 3.61133551 -11.3125 2.4375 C-10.25675781 1.77621094 -9.20101563 1.11492187 -8.11328125 0.43359375 C-4.73442753 -1.12228996 -3.45589057 -1.17333576 0 0 Z " fill="#EFEFEF" transform="translate(365,382)"/>
<path d="M0 0 C0.33 0.66 0.66 1.32 1 2 C-4.94 5.465 -4.94 5.465 -11 9 C-11.97608217 6.07175348 -12.08226668 4.04386724 -12 1 C-8.0186217 -0.3271261 -4.14954773 -0.06915913 0 0 Z " fill="#0A0C0B" transform="translate(380,368)"/>
<path d="M0 0 C0 0.99 0 1.98 0 3 C-2.1875 4.60546875 -2.1875 4.60546875 -5 6.1875 C-5.928125 6.71730469 -6.85625 7.24710938 -7.8125 7.79296875 C-8.534375 8.19128906 -9.25625 8.58960938 -10 9 C-10.99 8.34 -11.98 7.68 -13 7 C-12.375 5.125 -12.375 5.125 -11 3 C-8 1.8125 -8 1.8125 -5 1 C-3 0 -3 0 0 0 Z " fill="#F6F6F8" transform="translate(765,992)"/>
<path d="M0 0 C0.98914557 3.42564385 0.71468446 5.51591324 0 9 C0.33 9.99 0.66 10.98 1 12 C0.01 12.99 -0.98 13.98 -2 15 C-5.875 13.25 -5.875 13.25 -7 11 C-5.56640625 8.3984375 -5.56640625 8.3984375 -3.5625 5.375 C-2.90378906 4.37210938 -2.24507812 3.36921875 -1.56640625 2.3359375 C-1.04949219 1.56507813 -0.53257812 0.79421875 0 0 Z " fill="#09090B" transform="translate(911,849)"/>
<path d="M0 0 C0.33 0.66 0.66 1.32 1 2 C0.67 2.66 0.34 3.32 0 4 C-0.66 3.67 -1.32 3.34 -2 3 C-1.34 2.01 -0.68 1.02 0 0 Z M-3 4 C-2.34 5.32 -1.68 6.64 -1 8 C-1.99 9.485 -1.99 9.485 -3 11 C-2.67 11.66 -2.34 12.32 -2 13 C-2.66 13 -3.32 13 -4 13 C-4.2475 13.639375 -4.495 14.27875 -4.75 14.9375 C-6 17 -6 17 -8.125 17.75 C-9.053125 17.87375 -9.053125 17.87375 -10 18 C-9.44010697 14.00987629 -8.24330232 11.4744948 -5.9375 8.1875 C-5.38964844 7.39730469 -4.84179688 6.60710937 -4.27734375 5.79296875 C-3.64505859 4.90544922 -3.64505859 4.90544922 -3 4 Z " fill="#EFF0F0" transform="translate(297,427)"/>
<path d="M0 0 C-0.50603992 2.16874252 -0.99983813 3.99967627 -2 6 C-4.31 5.67 -6.62 5.34 -9 5 C-9 5.66 -9 6.32 -9 7 C-9.66 7 -10.32 7 -11 7 C-11.66 7.66 -12.32 8.32 -13 9 C-13.33 9.33 -13.66 9.66 -14 10 C-14.66 10 -15.32 10 -16 10 C-15.8671875 8.23828125 -15.8671875 8.23828125 -15 6 C-12.3828125 4.04296875 -12.3828125 4.04296875 -9.125 2.1875 C-8.05507813 1.56230469 -6.98515625 0.93710938 -5.8828125 0.29296875 C-3 -1 -3 -1 0 0 Z " fill="#EEEEEE" transform="translate(592,250)"/>
<path d="M0 0 C1.42944945 2.35438733 2.08661261 3.48032433 1.625 6.25 C1.41875 6.8275 1.2125 7.405 1 8 C-2.39593478 8 -3.06619881 7.47834052 -5.6875 5.5 C-6.31011719 5.0359375 -6.93273437 4.571875 -7.57421875 4.09375 C-8.04472656 3.7328125 -8.51523437 3.371875 -9 3 C-5.92807025 0.26939578 -4.09590633 -0.34132553 0 0 Z " fill="#F4F5F3" transform="translate(502,976)"/>
<path d="M0 0 C0.99 0.33 1.98 0.66 3 1 C3 1.66 3 2.32 3 3 C3.99 2.67 4.98 2.34 6 2 C5.57316761 3.58624235 5.13303842 5.1689098 4.6875 6.75 C4.44386719 7.63171875 4.20023438 8.5134375 3.94921875 9.421875 C2.97874669 12.05772505 1.78994356 13.85407326 0 16 C-1.07193479 12.78419562 -1.14636054 10.36629251 -1 7 C-0.67 6.67 -0.34 6.34 0 6 C-0.33 5.01 -0.66 4.02 -1 3 C-0.67 2.01 -0.34 1.02 0 0 Z " fill="#09090A" transform="translate(801,748)"/>
<path d="M0 0 C0.99 0.66 1.98 1.32 3 2 C3 2.66 3 3.32 3 4 C4.32 4 5.64 4 7 4 C7 8 7 8 5 11 C2.36 9.35 -0.28 7.7 -3 6 C-2 2 -2 2 0 0 Z " fill="#070609" transform="translate(881,352)"/>
<path d="M0 0 C3.26008643 3.16952847 6.22237877 6.39937989 9 10 C2.375 11 2.375 11 -1 11 C-0.67 8.69 -0.34 6.38 0 4 C-0.66 4 -1.32 4 -2 4 C-1.34 2.68 -0.68 1.36 0 0 Z " fill="#0D0E0D" transform="translate(404,901)"/>
<path d="M0 0 C0.66 0.33 1.32 0.66 2 1 C1.67 1.66 1.34 2.32 1 3 C0.34 2.34 -0.32 1.68 -1 1 C-0.67 0.67 -0.34 0.34 0 0 Z M-1 3 C-1.99 5.31 -2.98 7.62 -4 10 C-4.99 9.67 -5.98 9.34 -7 9 C-7 9.66 -7 10.32 -7 11 C-8.65 10.67 -10.3 10.34 -12 10 C-12 9.01 -12 8.02 -12 7 C-10.35546875 5.578125 -10.35546875 5.578125 -8.1875 4.25 C-7.47980469 3.80140625 -6.77210938 3.3528125 -6.04296875 2.890625 C-4 2 -4 2 -1 3 Z " fill="#F3F4F4" transform="translate(346,389)"/>
<path d="M0 0 C4.30764815 1.56641751 8.06171464 3.68336156 12 6 C11.34 6.66 10.68 7.32 10 8 C7.9375 7.5625 7.9375 7.5625 6 7 C5.67 7.33 5.34 7.66 5 8 C3.32457024 7.71395102 1.65614657 7.38218767 0 7 C-0.38133299 5.0085944 -0.71325582 3.00720923 -1 1 C-0.67 0.67 -0.34 0.34 0 0 Z " fill="#EDEFF0" transform="translate(881,360)"/>
<path d="M0 0 C4.10958767 1.45044271 7.43258745 3.51110752 11 6 C10.34 6.66 9.68 7.32 9 8 C6.66117862 7.70764733 4.32716 7.37400786 2 7 C1.01 7.495 1.01 7.495 0 8 C0 7.01 0 6.02 0 5 C-0.66 4.67 -1.32 4.34 -2 4 C-1.34 3.34 -0.68 2.68 0 2 C0 1.34 0 0.68 0 0 Z " fill="#101012" transform="translate(754,495)"/>
<path d="M0 0 C0 1.98 0 3.96 0 6 C-0.99 6.495 -0.99 6.495 -2 7 C-2.33 7.66 -2.66 8.32 -3 9 C-6 8 -6 8 -8 7 C-8.33 7.66 -8.66 8.32 -9 9 C-9.66 7.68 -10.32 6.36 -11 5 C-9.54462432 4.16151196 -8.08559627 3.32936066 -6.625 2.5 C-5.81289063 2.0359375 -5.00078125 1.571875 -4.1640625 1.09375 C-2 0 -2 0 0 0 Z " fill="#F1F1F3" transform="translate(456,327)"/>
<path d="M0 0 C1.17353189 3.52059568 1.20146402 6.306493 1 10 C0.34 10.66 -0.32 11.32 -1 12 C-1 11.34 -1 10.68 -1 10 C-2.32 10 -3.64 10 -5 10 C-6.6446674 12.46326712 -6.6446674 12.46326712 -8 15 C-8.66 15 -9.32 15 -10 15 C-8.37815499 11.41486894 -6.20743761 8.41007677 -3.875 5.25 C-3.15054688 4.26515625 -2.42609375 3.2803125 -1.6796875 2.265625 C-1.12539063 1.51796875 -0.57109375 0.7703125 0 0 Z " fill="#0C0C0D" transform="translate(895,873)"/>
<path d="M0 0 C3.875 1.75 3.875 1.75 5 4 C4.67 4.99 4.34 5.98 4 7 C4.66 7 5.32 7 6 7 C6.33 8.65 6.66 10.3 7 12 C6.01 12.66 5.02 13.32 4 14 C3.13116294 12.42466914 2.28040932 10.83935491 1.4375 9.25 C0.96183594 8.36828125 0.48617187 7.4865625 -0.00390625 6.578125 C-1.07998186 3.79298812 -1.06528748 2.73019786 0 0 Z " fill="#0C0C0C" transform="translate(993,440)"/>
<path d="M0 0 C3.51121797 0.2926015 4.80482666 0.8099628 7.375 3.3125 C9 6 9 6 8.6015625 8.16796875 C8.40304687 8.77253906 8.20453125 9.37710937 8 10 C6.65555841 9.09970429 5.32468562 8.17911978 4 7.25 C3.2575 6.73953125 2.515 6.2290625 1.75 5.703125 C1.1725 5.14109375 0.595 4.5790625 0 4 C0 2.68 0 1.36 0 0 Z " fill="#101012" transform="translate(967,408)"/>
<path d="M0 0 C1.32 1.32 2.64 2.64 4 4 C3.67 4.99 3.34 5.98 3 7 C2.05125 6.979375 1.1025 6.95875 0.125 6.9375 C-2.90666283 6.77448174 -2.90666283 6.77448174 -5 8 C-5.99 7.67 -6.98 7.34 -8 7 C-8 6.34 -8 5.68 -8 5 C-6.25 3.7109375 -6.25 3.7109375 -4 2.375 C-3.2575 1.92898438 -2.515 1.48296875 -1.75 1.0234375 C-1.1725 0.68570312 -0.595 0.34796875 0 0 Z " fill="#F0F2F1" transform="translate(410,352)"/>
<path d="M0 0 C4.95 0.99 4.95 0.99 10 2 C10 2.66 10 3.32 10 4 C10.66 4 11.32 4 12 4 C12 4.66 12 5.32 12 6 C12.66 6.33 13.32 6.66 14 7 C13.01 7.99 12.02 8.98 11 10 C9.16375669 8.52444734 7.3310715 7.04446569 5.5 5.5625 C4.4790625 4.73878906 3.458125 3.91507813 2.40625 3.06640625 C1.6121875 2.38449219 0.818125 1.70257812 0 1 C0 0.67 0 0.34 0 0 Z " fill="#F5F5F5" transform="translate(458,952)"/>
<path d="M0 0 C6.125 7.875 6.125 7.875 5.6875 11.8125 C5.460625 12.534375 5.23375 13.25625 5 14 C3.35 13.67 1.7 13.34 0 13 C0.66 12.67 1.32 12.34 2 12 C1.505 10.9275 1.01 9.855 0.5 8.75 C-0.88653911 5.74583192 -1 4.54065105 -1 1 C-0.67 0.67 -0.34 0.34 0 0 Z " fill="#EEEEEE" transform="translate(498,794)"/>
<path d="M0 0 C4.67105792 1.55701931 8.08705685 4.08447373 12 7 C11.67 7.99 11.34 8.98 11 10 C9 9 9 9 6 7 C2.87478167 6.83300768 2.87478167 6.83300768 0 7 C0 4.66666667 0 2.33333333 0 0 Z " fill="#101012" transform="translate(513,993)"/>
<path d="M0 0 C-1.98 2.31 -3.96 4.62 -6 7 C-8.475 6.01 -8.475 6.01 -11 5 C-8.6102683 -1.65710974 -6.76304013 -1.12717335 0 0 Z " fill="#0C0E0D" transform="translate(715,881)"/>
<path d="M0 0 C3.17218843 3.62535821 4.42902597 7.51150278 6 12 C4.68 12.33 3.36 12.66 2 13 C0.4375 11.5625 0.4375 11.5625 -1 9 C-0.96846324 5.94619073 -0.53266629 3.00346778 0 0 Z " fill="#111211" transform="translate(337,793)"/>
<path d="M0 0 C2 2 2 2 2.01171875 4.09375 C1.90472656 4.8878125 1.79773438 5.681875 1.6875 6.5 C1.58824219 7.2940625 1.48898437 8.088125 1.38671875 8.90625 C1 11 1 11 0 13 C-0.66 13 -1.32 13 -2 13 C-2 12.01 -2 11.02 -2 10 C-2.66 9.67 -3.32 9.34 -4 9 C-3.46930939 5.17902761 -2.50298434 2.93828597 0 0 Z " fill="#080A09" transform="translate(276,463)"/>
<path d="M0 0 C3.82946843 1.45255699 5.12050295 3.42895561 7 7 C6.34 7 5.68 7 5 7 C5 7.66 5 8.32 5 9 C1.54074837 7.7508258 -1.14693203 6.32472205 -4 4 C-2.68 2.68 -1.36 1.36 0 0 Z " fill="#090A0C" transform="translate(769,288)"/>
<path d="M0 0 C2.375 0.25 2.375 0.25 5 1 C6.3125 3.0625 6.3125 3.0625 7 5 C5.35 6.65 3.7 8.3 2 10 C0.68 9.34 -0.64 8.68 -2 8 C-1.34 8 -0.68 8 0 8 C-0.33 6.68 -0.66 5.36 -1 4 C-0.34 4 0.32 4 1 4 C0.67 2.68 0.34 1.36 0 0 Z " fill="#08090B" transform="translate(721,864)"/>
<path d="M0 0 C1.4606285 2.64738916 2 3.89448334 2 7 C0.35 7.66 -1.3 8.32 -3 9 C-3.33 8.67 -3.66 8.34 -4 8 C-5.32 8 -6.64 8 -8 8 C-7.9375 6.25 -7.9375 6.25 -7 4 C-4.75835678 2.40498463 -2.46433357 1.25456982 0 0 Z " fill="#EDF1F2" transform="translate(398,359)"/>
<path d="M0 0 C2.03833424 1.2739589 4.03852126 2.61061923 6 4 C6 4.66 6 5.32 6 6 C5.34 6 4.68 6 4 6 C3.67 6.66 3.34 7.32 3 8 C1.68 8 0.36 8 -1 8 C-1.66 7.34 -2.32 6.68 -3 6 C-2.75 3.4375 -2.75 3.4375 -2 1 C-1.34 0.67 -0.68 0.34 0 0 Z " fill="#F6F7F6" transform="translate(619,927)"/>
<path d="M0 0 C3.21043882 1.38188453 5.04936365 2.92421903 7.25 5.625 C7.77078125 6.25664063 8.2915625 6.88828125 8.828125 7.5390625 C9.40820312 8.26222656 9.40820312 8.26222656 10 9 C8.12890625 9.62109375 8.12890625 9.62109375 6 10 C4.6256709 8.70896357 3.29103643 7.3743291 2 6 C1.01 6 0.02 6 -1 6 C-0.67 4.02 -0.34 2.04 0 0 Z " fill="#F3F3F3" transform="translate(561,878)"/>
<path d="M0 0 C2.29633824 3.44450737 2.54016485 5.93812283 3 10 C2.01 10 1.02 10 0 10 C-0.99 10.33 -1.98 10.66 -3 11 C-3.33 9.02 -3.66 7.04 -4 5 C-3.01 4.67 -2.02 4.34 -1 4 C-0.26676204 1.98491642 -0.26676204 1.98491642 0 0 Z " fill="#08080A" transform="translate(300,693)"/>
<path d="M0 0 C0.99 1.32 1.98 2.64 3 4 C2.01 4.495 2.01 4.495 1 5 C0.67 5.66 0.34 6.32 0 7 C-2.28401108 8.46410966 -4.57392556 9.78696278 -7 11 C-7.33 9.68 -7.66 8.36 -8 7 C-5.36 4.69 -2.72 2.38 0 0 Z " fill="#F3F3F3" transform="translate(317,407)"/>
<path d="M0 0 C3.46941546 0.45822468 6.67395049 0.89131683 10 2 C10 3.98 10 5.96 10 8 C6.51329166 6.8905928 3.22515763 5.73662334 0 4 C0 2.68 0 1.36 0 0 Z " fill="#0A0A0A" transform="translate(678,240)"/>
<path d="M0 0 C2.75 0.25 2.75 0.25 5 1 C4.01 1.495 4.01 1.495 3 2 C3 2.99 3 3.98 3 5 C3.66 5 4.32 5 5 5 C5 6.65 5 8.3 5 10 C2.03 8.02 -0.94 6.04 -4 4 C-2.3125 1.9375 -2.3125 1.9375 0 0 Z " fill="#111111" transform="translate(618,920)"/>
<path d="M0 0 C-0.99 0 -1.98 0 -3 0 C-2.855625 0.5775 -2.71125 1.155 -2.5625 1.75 C-1.78125 4.875 -1.78125 4.875 -1 8 C-2.48285242 7.04737966 -3.96118201 6.08771595 -5.4375 5.125 C-6.26121094 4.59132813 -7.08492187 4.05765625 -7.93359375 3.5078125 C-10 2 -10 2 -11 0 C-3.375 -2.25 -3.375 -2.25 0 0 Z " fill="#0D0D0D" transform="translate(615,915)"/>
<path d="M0 0 C0.66 0.66 1.32 1.32 2 2 C1.67 2.33 1.34 2.66 1 3 C1.66 3.66 2.32 4.32 3 5 C2.01 6.485 2.01 6.485 1 8 C-0.99952758 8.04346799 -3.00039988 8.039992 -5 8 C-7.15762607 8.94299026 -7.15762607 8.94299026 -9 10 C-8.06409496 8.8944811 -7.12620142 7.79064547 -6.1875 6.6875 C-5.66542969 6.07261719 -5.14335938 5.45773437 -4.60546875 4.82421875 C-3.12827531 3.14575321 -1.59960869 1.56117966 0 0 Z " fill="#EEEFF0" transform="translate(724,872)"/>
<path d="M0 0 C1.32 0 2.64 0 4 0 C4.33 0.66 4.66 1.32 5 2 C5.99 1.67 6.98 1.34 8 1 C8.99 1.99 9.98 2.98 11 4 C10.01 5.485 10.01 5.485 9 7 C5.2089881 5.55049545 1.6125362 3.84827434 -2 2 C-1.34 1.34 -0.68 0.68 0 0 Z " fill="#0C0E0D" transform="translate(900,368)"/>
<path d="M0 0 C1.65 0 3.3 0 5 0 C5.33 0.66 5.66 1.32 6 2 C5.22265625 3.9453125 5.22265625 3.9453125 4.0625 6.125 C3.68222656 6.84945312 3.30195313 7.57390625 2.91015625 8.3203125 C2.45962891 9.15175781 2.45962891 9.15175781 2 10 C0.68 8.35 -0.64 6.7 -2 5 C-1.34 3.35 -0.68 1.7 0 0 Z " fill="#09090B" transform="translate(506,800)"/>
<path d="M0 0 C1 4 1 4 2 8 C1.01 8.33 0.02 8.66 -1 9 C-1.99 8.34 -2.98 7.68 -4 7 C-5.32 8.98 -6.64 10.96 -8 13 C-8.33 12.01 -8.66 11.02 -9 10 C-7.63671875 8.02734375 -7.63671875 8.02734375 -5.6875 5.9375 C-5.05199219 5.24527344 -4.41648437 4.55304688 -3.76171875 3.83984375 C-2.52249988 2.5456706 -1.26699399 1.26699399 0 0 Z " fill="#F2F2F2" transform="translate(308,415)"/>
<path d="M0 0 C0.66 0.33 1.32 0.66 2 1 C1.67 3.64 1.34 6.28 1 9 C-2 9 -2 9 -4 8 C-4.99 7.67 -5.98 7.34 -7 7 C-4.66666667 4.66666667 -2.33333333 2.33333333 0 0 Z " fill="#101012" transform="translate(814,959)"/>
<path d="M0 0 C1.34173403 0.92543709 2.67320159 1.86577405 4 2.8125 C5.11375 3.59560547 5.11375 3.59560547 6.25 4.39453125 C6.8275 4.92433594 7.405 5.45414063 8 6 C8 6.99 8 7.98 8 9 C7.01 8.67 6.02 8.34 5 8 C5 8.66 5 9.32 5 10 C4.34 10 3.68 10 3 10 C2.34 8.35 1.68 6.7 1 5 C0.01 5 -0.98 5 -2 5 C-1.34 3.35 -0.68 1.7 0 0 Z " fill="#EEEFEF" transform="translate(587,901)"/>
<path d="M0 0 C4.22797927 2.99481865 4.22797927 2.99481865 6 5 C6.375 8.3125 6.375 8.3125 6 11 C5.01 11.33 4.02 11.66 3 12 C-1.125 3.75 -1.125 3.75 0 0 Z " fill="#EFF1F0" transform="translate(576,891)"/>
<path d="M0 0 C0.66 0.66 1.32 1.32 2 2 C1.34 2 0.68 2 0 2 C0 2.66 0 3.32 0 4 C0.66 4 1.32 4 2 4 C2 5.98 2 7.96 2 10 C0.02 10.99 0.02 10.99 -2 12 C-2 11.34 -2 10.68 -2 10 C-2.66 10 -3.32 10 -4 10 C-3.52449439 8.51965236 -3.04448784 7.04074979 -2.5625 5.5625 C-2.29566406 4.73878906 -2.02882813 3.91507812 -1.75390625 3.06640625 C-1 1 -1 1 0 0 Z " fill="#F1F1F1" transform="translate(286,445)"/>
<path d="M0 0 C0.33 0.99 0.66 1.98 1 3 C1.66 2.34 2.32 1.68 3 1 C3.33 2.65 3.66 4.3 4 6 C0.04 7.98 0.04 7.98 -4 10 C-4 7.36 -4 4.72 -4 2 C-2.68 1.34 -1.36 0.68 0 0 Z " fill="#0C0C0E" transform="translate(453,320)"/>
<path d="M0 0 C2.91517292 1.07401108 4.77810176 1.77810176 7 4 C4.69 5.65 2.38 7.3 0 9 C-0.84454356 5.62182575 -1.10844919 3.32534757 0 0 Z " fill="#EDEDEF" transform="translate(801,961)"/>
<path d="M0 0 C0.66 0.33 1.32 0.66 2 1 C1.67 1.66 1.34 2.32 1 3 C1.66 3.33 2.32 3.66 3 4 C1.515 6.475 1.515 6.475 0 9 C-1.98 8.01 -3.96 7.02 -6 6 C-2.25 1.125 -2.25 1.125 0 0 Z " fill="#EFF1F0" transform="translate(709,887)"/>
<path d="M0 0 C0.99 0.495 0.99 0.495 2 1 C1.01 1.495 1.01 1.495 0 2 C0 1.34 0 0.68 0 0 Z M-1 2 C0.20628008 4.33214148 1.1654738 6.49642139 2 9 C1.2575 9.144375 0.515 9.28875 -0.25 9.4375 C-2.52027739 9.90187492 -4.75759479 10.41863569 -7 11 C-5.16172132 7.84866512 -3.24027294 4.88035092 -1 2 Z " fill="#EFEFEF" transform="translate(773,814)"/>
<path d="M0 0 C1.32 0.66 2.64 1.32 4 2 C4.33 1.34 4.66 0.68 5 0 C6.65 1.32 8.3 2.64 10 4 C9.01 5.485 9.01 5.485 8 7 C4.40608886 5.66511872 1.24509304 4.03977277 -2 2 C-1.34 1.34 -0.68 0.68 0 0 Z " fill="#0D0D0D" transform="translate(918,378)"/>
<path d="M0 0 C0.598125 0.185625 1.19625 0.37125 1.8125 0.5625 C4.16408762 1.22093687 4.16408762 1.22093687 7 0 C7 0.99 7 1.98 7 3 C7.33 3.99 7.66 4.98 8 6 C6.3125 6.6875 6.3125 6.6875 4 7 C1.25 5.5625 1.25 5.5625 -1 4 C-0.67 2.68 -0.34 1.36 0 0 Z " fill="#0B0D0C" transform="translate(792,304)"/>
<path d="M0 0 C0.66 0.66 1.32 1.32 2 2 C-0.37002413 4.61950036 -2.95453979 6.23683883 -6 8 C-6.33 8.33 -6.66 8.66 -7 9 C-7.99 9.495 -7.99 9.495 -9 10 C-9.99 9.34 -10.98 8.68 -12 8 C-8.04 5.36 -4.08 2.72 0 0 Z " fill="#191A1A" transform="translate(788,979)"/>
<path d="M0 0 C1.61949011 2.57213134 2.04408751 3.67669159 1.625 6.75 C1.41875 7.4925 1.2125 8.235 1 9 C-1.64 8.34 -4.28 7.68 -7 7 C-6.34 5.68 -5.68 4.36 -5 3 C-4.01 3 -3.02 3 -2 3 C-1.67 3.33 -1.34 3.66 -1 4 C-0.67 2.68 -0.34 1.36 0 0 Z " fill="#F0F1F1" transform="translate(750,847)"/>
<path d="M0 0 C2.31 0.33 4.62 0.66 7 1 C7.97608217 3.92824652 8.08226668 5.95613276 8 9 C6.140625 8.75390625 6.140625 8.75390625 4 8 C2.734375 6.15234375 2.734375 6.15234375 1.75 3.9375 C1.41484375 3.20402344 1.0796875 2.47054687 0.734375 1.71484375 C0.49203125 1.14894531 0.2496875 0.58304688 0 0 Z " fill="#EAEAEA" transform="translate(352,823)"/>
<path d="M0 0 C3.465 1.98 3.465 1.98 7 4 C6.01 5.485 6.01 5.485 5 7 C4.401875 6.835 3.80375 6.67 3.1875 6.5 C0.88655664 5.8885876 0.88655664 5.8885876 -2 6 C-2.33 5.01 -2.66 4.02 -3 3 C-2.01 2.01 -1.02 1.02 0 0 Z " fill="#0E0E0F" transform="translate(526,1001)"/>
<path d="M0 0 C2.79651501 1.46817038 3.43411431 2.40553901 4.5 5.3125 C1.09068103 6.44893966 0.49664544 6.17997764 -2.6875 4.875 C-3.40292969 4.58753906 -4.11835937 4.30007813 -4.85546875 4.00390625 C-5.66951172 3.66166016 -5.66951172 3.66166016 -6.5 3.3125 C-5.84 2.9825 -5.18 2.6525 -4.5 2.3125 C-4.5 1.6525 -4.5 0.9925 -4.5 0.3125 C-2.5 -0.6875 -2.5 -0.6875 0 0 Z " fill="#0B0D0C" transform="translate(633.5,929.6875)"/>
<path d="M0 0 C3.7952131 1.49097658 5.61042731 3.75700849 8 7 C7.34 7.66 6.68 8.32 6 9 C5.01 9 4.02 9 3 9 C2.67 8.34 2.34 7.68 2 7 C1.34 7 0.68 7 0 7 C0.185625 6.21625 0.37125 5.4325 0.5625 4.625 C1.25962266 2.02910225 1.25962266 2.02910225 0 0 Z " fill="#0C0E0D" transform="translate(417,917)"/>
<path d="M0 0 C0.99 0.33 1.98 0.66 3 1 C2 4 2 4 -1 6 C-0.67 6.66 -0.34 7.32 0 8 C-1.65 8.33 -3.3 8.66 -5 9 C-5.66 8.01 -6.32 7.02 -7 6 C-5.90716423 4.96704564 -4.80029421 3.94892165 -3.6875 2.9375 C-3.07261719 2.36902344 -2.45773437 1.80054688 -1.82421875 1.21484375 C-0.92123047 0.61349609 -0.92123047 0.61349609 0 0 Z " fill="#F0F1F1" transform="translate(690,903)"/>
<path d="M0 0 C1 2 1 2 1 5 C1.33 5.66 1.66 6.32 2 7 C-2.50802601 5.74194623 -5.4912812 4.09592835 -9 1 C-6.04335481 -0.4783226 -3.25770263 -0.06032783 0 0 Z " fill="#0F100F" transform="translate(935,384)"/>
<path d="M0 0 C2.31 0 4.62 0 7 0 C7 3 7 3 6 6 C3.9375 6.6875 3.9375 6.6875 2 7 C2 6.34 2 5.68 2 5 C1.34 4.67 0.68 4.34 0 4 C0 2.68 0 1.36 0 0 Z " fill="#0D0D0F" transform="translate(424,336)"/>
<path d="M0 0 C7.57142857 4.14285714 7.57142857 4.14285714 10 7 C7.6875 7.6875 7.6875 7.6875 5 8 C3.1875 6.5625 3.1875 6.5625 2 5 C1.01 5.495 1.01 5.495 0 6 C0 5.34 0 4.68 0 4 C-0.66 3.67 -1.32 3.34 -2 3 C-1.34 2.01 -0.68 1.02 0 0 Z " fill="#121214" transform="translate(500,984)"/>
<path d="M0 0 C8.49230769 0.49230769 8.49230769 0.49230769 11.0625 3.0625 C11.371875 3.701875 11.68125 4.34125 12 5 C10.33333333 5 8.66666667 5 7 5 C6.67 5.66 6.34 6.32 6 7 C4.02 4.69 2.04 2.38 0 0 Z " fill="#0E0E0E" transform="translate(556,871)"/>
<path d="M0 0 C2.3125 0.1875 2.3125 0.1875 4 1 C2.77065985 4.68802044 1.06140622 5.72356973 -2 8 C-2.99 7.01 -3.98 6.02 -5 5 C-2.75 2.4375 -2.75 2.4375 0 0 Z " fill="#F2F4F3" transform="translate(740,856)"/>
<path d="M0 0 C1.32 0.66 2.64 1.32 4 2 C2.87548273 4.9719385 1.77706209 7.33440687 0 10 C-0.99 9.01 -1.98 8.02 -3 7 C-2.34 6.67 -1.68 6.34 -1 6 C-1.33 5.01 -1.66 4.02 -2 3 C-1.34 2.01 -0.68 1.02 0 0 Z " fill="#0E0E0E" transform="translate(283,441)"/>
<path d="M0 0 C2.31 0.33 4.62 0.66 7 1 C6.67 2.32 6.34 3.64 6 5 C4.25 5.6875 4.25 5.6875 2 6 C-0.25 4.5625 -0.25 4.5625 -2 3 C-1.34 2.01 -0.68 1.02 0 0 Z " fill="#0A0A0A" transform="translate(807,312)"/>
<path d="M0 0 C3.45925163 1.2491742 6.14693203 2.67527795 9 5 C6 7 6 7 3.9375 6.75 C1.74805505 5.90247292 0.63659857 4.63659857 -1 3 C-0.67 2.01 -0.34 1.02 0 0 Z " fill="#EFF1F0" transform="translate(758,289)"/>
<path d="M0 0 C3.65316671 1.24976756 4.78065836 1.67098753 7 5 C3.04 6.98 3.04 6.98 -1 9 C-0.835 8.2575 -0.67 7.515 -0.5 6.75 C0.11925696 3.80993422 0.11925696 3.80993422 0 0 Z " fill="#0D0D0D" transform="translate(577,248)"/>
<path d="M0 0 C1.32 1.32 2.64 2.64 4 4 C4.33 3.34 4.66 2.68 5 2 C5 2.66 5 3.32 5 4 C5.66 4.33 6.32 4.66 7 5 C6.67 6.32 6.34 7.64 6 9 C3.36 7.02 0.72 5.04 -2 3 C-1.34 2.01 -0.68 1.02 0 0 Z " fill="#EDEDEF" transform="translate(473,960)"/>
<path d="M0 0 C0.33 0.99 0.66 1.98 1 3 C-0.26418246 3.69965443 -1.53665402 4.38434763 -2.8125 5.0625 C-3.52019531 5.44535156 -4.22789062 5.82820312 -4.95703125 6.22265625 C-7 7 -7 7 -10 6 C-4.15384615 0 -4.15384615 0 0 0 Z " fill="#080A09" transform="translate(655,928)"/>
<path d="M0 0 C0.66 0.66 1.32 1.32 2 2 C1.625 4.125 1.625 4.125 1 6 C-0.9375 6.5625 -0.9375 6.5625 -3 7 C-3.33 6.67 -3.66 6.34 -4 6 C-4.99 6 -5.98 6 -7 6 C-4.9859524 2.9789286 -3.36720387 1.39332574 0 0 Z " fill="#F4F5F5" transform="translate(718,880)"/>
<path d="M0 0 C0.66 0 1.32 0 2 0 C1.835 0.639375 1.67 1.27875 1.5 1.9375 C0.96073333 3.80826821 0.96073333 3.80826821 1 5 C0.34964186 6.34136367 -0.3162955 7.67532254 -1 9 C-3 9 -5 9 -7 9 C-6.02180976 7.68677212 -5.0424189 6.37443848 -4.0625 5.0625 C-3.51722656 4.33160156 -2.97195313 3.60070312 -2.41015625 2.84765625 C-1 1 -1 1 0 0 Z " fill="#F0F1F1" transform="translate(758,835)"/>
<path d="M0 0 C1.96794289 2.95191434 2.52003592 4.65492023 3.1875 8.0625 C3.36667969 8.94035156 3.54585938 9.81820312 3.73046875 10.72265625 C4 13 4 13 3 15 C2.34 15 1.68 15 1 15 C-0.03590199 9.94997778 -0.10251672 5.12583611 0 0 Z " fill="#0D1113" transform="translate(304,706)"/>
<path d="M0 0 C0.99 0.66 1.98 1.32 3 2 C1.35 4.64 -0.3 7.28 -2 10 C-2.66 9.34 -3.32 8.68 -4 8 C-4 7.01 -4 6.02 -4 5 C-4.33 4.34 -4.66 3.68 -5 3 C-4.34 3 -3.68 3 -3 3 C-2.67 2.34 -2.34 1.68 -2 1 C-1.34 0.67 -0.68 0.34 0 0 Z " fill="#101110" transform="translate(294,426)"/>
<path d="M0 0 C0.33 0.99 0.66 1.98 1 3 C0.01 3.495 0.01 3.495 -1 4 C-1 5.32 -1 6.64 -1 8 C-2.32 7.67 -3.64 7.34 -5 7 C-4.67 7.33 -4.34 7.66 -4 8 C-4.99 8.33 -5.98 8.66 -7 9 C-7 8.34 -7 7.68 -7 7 C-7.66 6.67 -8.32 6.34 -9 6 C-6.03 4.02 -3.06 2.04 0 0 Z " fill="#EDEDED" transform="translate(661,926)"/>
<path d="M0 0 C2 1 2 1 3 3 C2.01 3.495 2.01 3.495 1 4 C0.67 4.99 0.34 5.98 0 7 C0.66 7.33 1.32 7.66 2 8 C-0.475 9.485 -0.475 9.485 -3 11 C-4 8 -4 8 -3.22265625 5.95703125 C-2.83980469 5.24933594 -2.45695313 4.54164063 -2.0625 3.8125 C-1.68222656 3.09707031 -1.30195312 2.38164063 -0.91015625 1.64453125 C-0.60980469 1.10183594 -0.30945313 0.55914063 0 0 Z " fill="#F0F1F3" transform="translate(804,758)"/>
<path d="M0 0 C3.33333333 0 6.66666667 0 10 0 C10 0.66 10 1.32 10 2 C3.6 5.07692308 3.6 5.07692308 0.5625 4.6875 C0.046875 4.460625 -0.46875 4.23375 -1 4 C-0.67 2.68 -0.34 1.36 0 0 Z " fill="#EDEDEE" transform="translate(570,465)"/>
<path d="M0 0 C0.33 0 0.66 0 1 0 C1 1.65 1 3.3 1 5 C-5.28571429 7.42857143 -5.28571429 7.42857143 -9 6 C-8.34 5.01 -7.68 4.02 -7 3 C-3.375 2.3125 -3.375 2.3125 0 2 C0 1.34 0 0.68 0 0 Z " fill="#0B0B0C" transform="translate(545,270)"/>
<path d="M0 0 C3.21880117 3.7935871 5.6163187 7.65829477 8 12 C7.01 12 6.02 12 5 12 C4.67 10.35 4.34 8.7 4 7 C3.34 7.66 2.68 8.32 2 9 C1.01 9.495 1.01 9.495 0 10 C0 6.7 0 3.4 0 0 Z " fill="#111113" transform="translate(376,864)"/>
<path d="M0 0 C2.60608273 2.5162178 4.89381685 5.05134359 7 8 C6.67 8.66 6.34 9.32 6 10 C3.625 9.4375 3.625 9.4375 1 8 C-0.3125 4.375 -0.3125 4.375 -1 1 C-0.67 0.67 -0.34 0.34 0 0 Z " fill="#ECECEC" transform="translate(522,831)"/>
<path d="M0 0 C0.66 0 1.32 0 2 0 C2.96398647 2.8919594 3 4.9994375 3 8 C1.35 8.66 -0.3 9.32 -2 10 C-3 8 -3 8 -2.44140625 6.0546875 C-2.15136719 5.33539062 -1.86132812 4.61609375 -1.5625 3.875 C-1.27503906 3.15054688 -0.98757813 2.42609375 -0.69140625 1.6796875 C-0.46324219 1.12539063 -0.23507812 0.57109375 0 0 Z " fill="#101012" transform="translate(963,742)"/>
<path d="M0 0 C2.6875 0.875 2.6875 0.875 5 2 C2.14693203 4.32472205 -0.54074837 5.7508258 -4 7 C-3.6875 4.625 -3.6875 4.625 -3 2 C-2.01 1.34 -1.02 0.68 0 0 Z " fill="#F0F0F2" transform="translate(515,497)"/>
<path d="M0 0 C2.97 1.65 5.94 3.3 9 5 C8.67 5.99 8.34 6.98 8 8 C5.48734329 7.16244776 3.34072661 6.20811696 1 5 C0.34 4.67 -0.32 4.34 -1 4 C-0.67 2.68 -0.34 1.36 0 0 Z " fill="#EDEFEE" transform="translate(825,327)"/>
<path d="M0 0 C0.66 0.99 1.32 1.98 2 3 C1.34 4.32 0.68 5.64 0 7 C-0.78375 6.814375 -1.5675 6.62875 -2.375 6.4375 C-4.97089775 5.74037734 -4.97089775 5.74037734 -7 7 C-7 6.01 -7 5.02 -7 4 C-4.69 2.68 -2.38 1.36 0 0 Z " fill="#F2F2F2" transform="translate(549,272)"/>
<path d="M0 0 C2.97 0.33 5.94 0.66 9 1 C6.12050853 3.23960447 3.23257974 5.29864224 0 7 C-0.66 6.67 -1.32 6.34 -2 6 C-1.34 4.02 -0.68 2.04 0 0 Z " fill="#111211" transform="translate(563,258)"/>
<path d="M0 0 C0.99 0.33 1.98 0.66 3 1 C3.66 0.67 4.32 0.34 5 0 C5 0.66 5 1.32 5 2 C5.66 2 6.32 2 7 2 C5.95125002 4.62187494 5.35068687 5.79371361 2.875 7.25 C2.25625 7.4975 1.6375 7.745 1 8 C0.67 5.36 0.34 2.72 0 0 Z " fill="#0C0C0C" transform="translate(696,889)"/>
<path d="M0 0 C1.9375 0.8125 1.9375 0.8125 4 2 C4.33 2.99 4.66 3.98 5 5 C3.35 6.32 1.7 7.64 0 9 C-0.144375 8.38125 -0.28875 7.7625 -0.4375 7.125 C-0.93152225 4.96741678 -0.93152225 4.96741678 -2 3 C-1.34 2.01 -0.68 1.02 0 0 Z " fill="#0B0C0C" transform="translate(715,872)"/>
<path d="M0 0 C2.64 0.99 5.28 1.98 8 3 C8 3.33 8 3.66 8 4 C6.35 4 4.7 4 3 4 C2.67 4.66 2.34 5.32 2 6 C-0.97 5.505 -0.97 5.505 -4 5 C-2.68 4.34 -1.36 3.68 0 3 C0 2.01 0 1.02 0 0 Z " fill="#111014" transform="translate(700,466)"/>
<path d="M0 0 C1.98 0 3.96 0 6 0 C6 3 6 3 5 5 C5.66 5.66 6.32 6.32 7 7 C6.34 7.66 5.68 8.32 5 9 C4.16094435 7.87926138 3.32892169 6.75325453 2.5 5.625 C2.0359375 4.99851562 1.571875 4.37203125 1.09375 3.7265625 C0 2 0 2 0 0 Z " fill="#F0F0F2" transform="translate(809,528)"/>
<path d="M0 0 C0.78375 0.04125 1.5675 0.0825 2.375 0.125 C3.5 3.875 3.5 3.875 2.375 6.125 C-0.54017292 5.05098892 -2.40310176 4.34689824 -4.625 2.125 C-2.625 0.125 -2.625 0.125 0 0 Z " fill="#ECECEC" transform="translate(756.625,490.875)"/>
<path d="M0 0 C1.98 0.66 3.96 1.32 6 2 C3.14693203 4.32472205 0.45925163 5.7508258 -3 7 C-3.33 6.01 -3.66 5.02 -4 4 C-2.68 2.68 -1.36 1.36 0 0 Z " fill="#0C0E0D" transform="translate(346,384)"/>
<path d="M0 0 C0.66 0.33 1.32 0.66 2 1 C0.25 6.75 0.25 6.75 -2 9 C-2.99 8.34 -3.98 7.68 -5 7 C-2.25 1.125 -2.25 1.125 0 0 Z " fill="#F1F3F2" transform="translate(523,287)"/>
<path d="M0 0 C3.465 1.485 3.465 1.485 7 3 C6.25 4.9375 6.25 4.9375 5 7 C2.875 7.75 2.875 7.75 1 8 C1 6.66666667 1 5.33333333 1 4 C0.34 4 -0.32 4 -1 4 C-0.67 2.68 -0.34 1.36 0 0 Z " fill="#EDEDED" transform="translate(729,272)"/>
<path d="M0 0 C3.16717283 1.58358642 4.73268318 2.45263699 6.3125 5.6875 C6.539375 6.450625 6.76625 7.21375 7 8 C4 8 4 8 2.61328125 6.6875 C1.40885417 5.125 0.20442708 3.5625 -1 2 C-0.67 1.34 -0.34 0.68 0 0 Z " fill="#E3E5E4" transform="translate(417,912)"/>
<path d="M0 0 C0.66 0.99 1.32 1.98 2 3 C1.34 4.32 0.68 5.64 0 7 C-1.98 5.35 -3.96 3.7 -6 2 C-3 0 -3 0 0 0 Z " fill="#0F0F0F" transform="translate(574,882)"/>
<path d="M0 0 C1.65 1.65 3.3 3.3 5 5 C4.67 5.99 4.34 6.98 4 8 C2.125 7.75 2.125 7.75 0 7 C-1.25 4.9375 -1.25 4.9375 -2 3 C-1.34 2.01 -0.68 1.02 0 0 Z " fill="#111113" transform="translate(387,880)"/>
<path d="M0 0 C3 0 3 0 7 1 C4.525 4.465 4.525 4.465 2 8 C-0.1519437 4.77208445 -0.20086443 3.71599191 0 0 Z " fill="#111113" transform="translate(760,823)"/>
<path d="M0 0 C2.31 0 4.62 0 7 0 C6.67 1.32 6.34 2.64 6 4 C6 3.01 6 2.02 6 1 C5.34 1 4.68 1 4 1 C4.33 2.98 4.66 4.96 5 7 C4.01 7.495 4.01 7.495 3 8 C0 2.25 0 2.25 0 0 Z " fill="#EBECEB" transform="translate(334,785)"/>
<path d="M0 0 C2.31 0 4.62 0 7 0 C7.33 0.66 7.66 1.32 8 2 C4.04 3.98 4.04 3.98 0 6 C-0.66 5.34 -1.32 4.68 -2 4 C-1.34 2.68 -0.68 1.36 0 0 Z " fill="#0D0E0D" transform="translate(401,352)"/>
<path d="M0 0 C0.99 0.33 1.98 0.66 3 1 C2.34 1 1.68 1 1 1 C1.309375 2.175625 1.309375 2.175625 1.625 3.375 C1.74875 4.24125 1.8725 5.1075 2 6 C1.34 6.66 0.68 7.32 0 8 C-1.65 6.68 -3.3 5.36 -5 4 C-2.6875 1.9375 -2.6875 1.9375 0 0 Z " fill="#0A0C0B" transform="translate(827,321)"/>
<path d="M0 0 C1.11375 0.2475 1.11375 0.2475 2.25 0.5 C5.19006578 1.11925696 5.19006578 1.11925696 9 1 C8.67 1.99 8.34 2.98 8 4 C5.6875 4.625 5.6875 4.625 3 5 C2.01 4.34 1.02 3.68 0 3 C0 2.01 0 1.02 0 0 Z " fill="#0D0D0D" transform="translate(592,241)"/>
<path d="M0 0 C2.97 1.98 2.97 1.98 6 4 C5.34 4.66 4.68 5.32 4 6 C3.34 6 2.68 6 2 6 C1.67 6.66 1.34 7.32 1 8 C0.01 7.67 -0.98 7.34 -2 7 C-1.34 4.69 -0.68 2.38 0 0 Z " fill="#161618" transform="translate(466,959)"/>
<path d="M0 0 C3 0.3125 3 0.3125 6 1 C6.33 1.66 6.66 2.32 7 3 C6.01 3.99 5.02 4.98 4 6 C2.35 4.35 0.7 2.7 -1 1 C-0.67 0.67 -0.34 0.34 0 0 Z " fill="#ECEDED" transform="translate(441,936)"/>
<path d="M0 0 C0 0.99 0 1.98 0 3 C-0.33 3.33 -0.66 3.66 -1 4 C-0.34 4.66 0.32 5.32 1 6 C0.360625 6.12375 -0.27875 6.2475 -0.9375 6.375 C-1.9584375 6.684375 -1.9584375 6.684375 -3 7 C-3.33 7.66 -3.66 8.32 -4 9 C-4.99 8.01 -5.98 7.02 -7 6 C-4.69 4.02 -2.38 2.04 0 0 Z " fill="#F0F0F0" transform="translate(670,919)"/>
<path d="M0 0 C0.66 0.33 1.32 0.66 2 1 C2.59355614 3.64860427 2.74209269 6.29197322 3 9 C2.01 9.495 2.01 9.495 1 10 C-0.625 6.6875 -0.625 6.6875 -2 3 C-1.34 2.01 -0.68 1.02 0 0 Z " fill="#F0F0F0" transform="translate(469,724)"/>
<path d="M0 0 C2.5 1.3125 2.5 1.3125 5 3 C5 3.99 5 4.98 5 6 C3.35 6.33 1.7 6.66 0 7 C-1.33332095 4.3333581 -0.67102033 2.83319697 0 0 Z " fill="#F1F1F3" transform="translate(961,407)"/>
<path d="M0 0 C2.31 0.66 4.62 1.32 7 2 C6.34 3.65 5.68 5.3 5 7 C2.5 5.75 2.5 5.75 0 4 C0 2.68 0 1.36 0 0 Z " fill="#141516" transform="translate(958,401)"/>
<path d="M0 0 C2 3 2 3 3 6 C2.34 6.66 1.68 7.32 1 8 C-1.5 6.1875 -1.5 6.1875 -4 4 C-4 3.01 -4 2.02 -4 1 C-2.68 0.67 -1.36 0.34 0 0 Z " fill="#0F0F0F" transform="translate(949,392)"/>
<path d="M0 0 C0.99 0.33 1.98 0.66 3 1 C3 2.65 3 4.3 3 6 C2.01 6.33 1.02 6.66 0 7 C-1.32 5.68 -2.64 4.36 -4 3 C-2.68 2.67 -1.36 2.34 0 2 C0 1.34 0 0.68 0 0 Z " fill="#0C0D0F" transform="translate(893,360)"/>
<path d="M0 0 C0.66 0.33 1.32 0.66 2 1 C2 1.66 2 2.32 2 3 C-0.3125 4.6875 -0.3125 4.6875 -3 6 C-3.99 5.67 -4.98 5.34 -6 5 C-6.6875 2.9375 -6.6875 2.9375 -7 1 C-6.401875 1.20625 -5.80375 1.4125 -5.1875 1.625 C-2.71549154 2.30671915 -2.71549154 2.30671915 0 0 Z " fill="#080C0C" transform="translate(391,360)"/>
<path d="M0 0 C0.99 0.33 1.98 0.66 3 1 C2.49396008 3.16874252 2.00016187 4.99967627 1 7 C-0.32 7 -1.64 7 -3 7 C-2.625 4.0625 -2.625 4.0625 -2 1 C-1.34 0.67 -0.68 0.34 0 0 Z " fill="#F4F4F4" transform="translate(589,249)"/>
<path d="M0 0 C6.93 0.495 6.93 0.495 14 1 C9.78492722 4.16130459 8.93928888 4.3367697 4 4 C4 3.34 4 2.68 4 2 C2.68 1.34 1.36 0.68 0 0 Z " fill="#17171A" transform="translate(618,1041)"/>
<path d="M0 0 C-3.96 1.98 -3.96 1.98 -8 4 C-8.66 2.68 -9.32 1.36 -10 0 C-4.5 -2.25 -4.5 -2.25 0 0 Z " fill="#ECECED" transform="translate(762,997)"/>
<path d="M0 0 C2.625 0.1875 2.625 0.1875 5.625 2.1875 C4.305 3.5075 2.985 4.8275 1.625 6.1875 C-0.025 4.5375 -1.675 2.8875 -3.375 1.1875 C-2.375 0.1875 -2.375 0.1875 0 0 Z " fill="#EBEBEB" transform="translate(483.375,967.8125)"/>
<path d="M0 0 C0.99 0.495 0.99 0.495 2 1 C2.33 0.67 2.66 0.34 3 0 C4.5 1.375 4.5 1.375 6 3 C6 3.66 6 4.32 6 5 C4.125 6.0625 4.125 6.0625 2 7 C1.34 6.67 0.68 6.34 0 6 C0 4.02 0 2.04 0 0 Z " fill="#0D0D0F" transform="translate(360,843)"/>
<path d="M0 0 C0.99 0.33 1.98 0.66 3 1 C2.67 2.65 2.34 4.3 2 6 C0.68 5.67 -0.64 5.34 -2 5 C-2 5.66 -2 6.32 -2 7 C-2.66 6.67 -3.32 6.34 -4 6 C-2.68 4.02 -1.36 2.04 0 0 Z " fill="#0E0E10" transform="translate(917,840)"/>
<path d="M0 0 C0.99 0 1.98 0 3 0 C3.33 0.66 3.66 1.32 4 2 C4.66 2.33 5.32 2.66 6 3 C5.67 3.66 5.34 4.32 5 5 C5.66 5.33 6.32 5.66 7 6 C5.02 6.33 3.04 6.66 1 7 C0.34 5.02 -0.32 3.04 -1 1 C-0.67 0.67 -0.34 0.34 0 0 Z " fill="#EFF4F5" transform="translate(305,704)"/>
<path d="M0 0 C2.50037734 2.17424117 3.43628586 3.73045798 4 7 C2.68 7.33 1.36 7.66 0 8 C-0.12375 7.195625 -0.2475 6.39125 -0.375 5.5625 C-0.684375 4.2940625 -0.684375 4.2940625 -1 3 C-1.66 2.67 -2.32 2.34 -3 2 C-2.01 1.34 -1.02 0.68 0 0 Z " fill="#121214" transform="translate(813,535)"/>
<path d="M0 0 C3.465 1.98 3.465 1.98 7 4 C5.68 4.99 4.36 5.98 3 7 C3 6.34 3 5.68 3 5 C1.02 5.99 1.02 5.99 -1 7 C-1 4.37886292 -0.68707555 2.49064888 0 0 Z " fill="#111114" transform="translate(771,505)"/>
<path d="M0 0 C4.75 0.75 4.75 0.75 7 3 C7.66 3.33 8.32 3.66 9 4 C6 6 6 6 3.3125 5.625 C2.549375 5.41875 1.78625 5.2125 1 5 C0.67 3.35 0.34 1.7 0 0 Z " fill="#0E0E0E" transform="translate(408,345)"/>
<path d="M0 0 C-1.4488189 3.74278215 -1.4488189 3.74278215 -3.875 4.875 C-6.47386397 5.02787435 -7.8019253 4.33454536 -10 3 C-6.48812804 0.59185923 -4.27343092 -0.36629408 0 0 Z " fill="#F0F0F1" transform="translate(424,347)"/>
<path d="M0 0 C1.8125 0.375 1.8125 0.375 4 1 C4.7425 1.185625 5.485 1.37125 6.25 1.5625 C6.8275 1.706875 7.405 1.85125 8 2 C8.33 1.34 8.66 0.68 9 0 C9.33 0.99 9.66 1.98 10 3 C7 5 7 5 5.0625 4.8125 C2.69178476 3.87858188 0.96209466 2.61172061 -1 1 C-0.67 0.67 -0.34 0.34 0 0 Z " fill="#0B0B0B" transform="translate(830,328)"/>
<path d="M0 0 C3.96 1.98 3.96 1.98 8 4 C7.67 4.99 7.34 5.98 7 7 C4.9375 7.6875 4.9375 7.6875 3 8 C0 2.25 0 2.25 0 0 Z " fill="#EDEDED" transform="translate(688,248)"/>
<path d="M0 0 C5.75 0.75 5.75 0.75 8 3 C7.01 3 6.02 3 5 3 C5 3.66 5 4.32 5 5 C2.5625 4.625 2.5625 4.625 0 4 C-0.33 3.34 -0.66 2.68 -1 2 C-0.67 1.34 -0.34 0.68 0 0 Z " fill="#EFEFEF" transform="translate(674,243)"/>
<path d="M0 0 C-4.625 4.875 -4.625 4.875 -8 6 C-8 5.01 -8 4.02 -8 3 C-7.34 2.67 -6.68 2.34 -6 2 C-6.33 1.34 -6.66 0.68 -7 0 C-4.3333581 -1.33332095 -2.83319697 -0.67102033 0 0 Z " fill="#0E0F0E" transform="translate(677,914)"/>
<path d="M0 0 C2.79872437 2.52788007 4.45773019 4.20411134 5 8 C3.68 8.33 2.36 8.66 1 9 C1 7.68 1 6.36 1 5 C0.06716704 2.79932579 0.06716704 2.79932579 -1 1 C-0.67 0.67 -0.34 0.34 0 0 Z " fill="#EEEEEE" transform="translate(548,863)"/>
<path d="M0 0 C1.32 0.99 2.64 1.98 4 3 C3.67 4.65 3.34 6.3 3 8 C2.34 8 1.68 8 1 8 C0.01 5.69 -0.98 3.38 -2 1 C-1.34 0.67 -0.68 0.34 0 0 Z " fill="#0C0E0D" transform="translate(488,769)"/>
<path d="M0 0 C0.66 0.33 1.32 0.66 2 1 C1.54625 1.433125 1.0925 1.86625 0.625 2.3125 C-1.20024334 4.10798342 -1.20024334 4.10798342 -3 7 C-4.32 7 -5.64 7 -7 7 C-7.66 6.34 -8.32 5.68 -9 5 C-7.54735962 4.1361871 -6.0876837 3.28419546 -4.625 2.4375 C-3.40683594 1.72400391 -3.40683594 1.72400391 -2.1640625 0.99609375 C-1.44992187 0.66738281 -0.73578125 0.33867187 0 0 Z " fill="#121214" transform="translate(537,489)"/>
<path d="M0 0 C0.86625 0.2784375 0.86625 0.2784375 1.75 0.5625 C4.20692525 1.04023546 5.64397534 0.75729364 8 0 C8 0.99 8 1.98 8 3 C6.03533587 4.06775224 4.03144641 5.06553465 2 6 C1.34 5.67 0.68 5.34 0 5 C0.33 4.01 0.66 3.02 1 2 C0.67 1.34 0.34 0.68 0 0 Z " fill="#ECECEC" transform="translate(552,474)"/>
<path d="M0 0 C1.32 0 2.64 0 4 0 C3.67 1.65 3.34 3.3 3 5 C1.68 5.33 0.36 5.66 -1 6 C-1 2 -1 2 0 0 Z " fill="#0D0D0D" transform="translate(330,393)"/>
<path d="M0 0 C2 1.375 2 1.375 4 3 C4 5 4 5 2.5 6.625 C2.005 7.07875 1.51 7.5325 1 8 C-0.32 7.34 -1.64 6.68 -3 6 C-2.34 5.34 -1.68 4.68 -1 4 C-0.3574765 1.93125966 -0.3574765 1.93125966 0 0 Z " fill="#0E0E0E" transform="translate(868,344)"/>
<path d="M0 0 C0.99 0.99 1.98 1.98 3 3 C-2.2734375 6.22265625 -2.2734375 6.22265625 -4 7 C-4.66 6.67 -5.32 6.34 -6 6 C-4.75453595 2.26360784 -3.36595047 1.81243487 0 0 Z " fill="#0E0E0E" transform="translate(446,328)"/>
<path d="M0 0 C0.66 0.33 1.32 0.66 2 1 C0.92598892 3.91517292 0.22189824 5.77810176 -2 8 C-2.66 6.68 -3.32 5.36 -4 4 C-2.68 2.68 -1.36 1.36 0 0 Z " fill="#0B0B0B" transform="translate(742,1008)"/>
<path d="M0 0 C0.33 0.99 0.66 1.98 1 3 C-1 5 -3 7 -5 9 C-5.66 8.67 -6.32 8.34 -7 8 C-7.33 8.66 -7.66 9.32 -8 10 C-8 7 -8 7 -6.25 5.17578125 C-5.5075 4.56089844 -4.765 3.94601562 -4 3.3125 C-3.2575 2.68988281 -2.515 2.06726563 -1.75 1.42578125 C-1.1725 0.95527344 -0.595 0.48476563 0 0 Z " fill="#18181A" transform="translate(827,948)"/>
<path d="M0 0 C0.99 1.32 1.98 2.64 3 4 C0 6 0 6 -3 6 C-3.66 4.68 -4.32 3.36 -5 2 C-3.35 1.34 -1.7 0.68 0 0 Z " fill="#111113" transform="translate(358,834)"/>
<path d="M0 0 C0.66 0.33 1.32 0.66 2 1 C2 1.99 2 2.98 2 4 C2.66 4 3.32 4 4 4 C4 4.66 4 5.32 4 6 C3.34 6 2.68 6 2 6 C1.67 6.66 1.34 7.32 1 8 C-2 4.375 -2 4.375 -2 1 C-1.34 0.67 -0.68 0.34 0 0 Z " fill="#111111" transform="translate(528,833)"/>
<path d="M0 0 C1.875 0.1875 1.875 0.1875 4 1 C5.25 3.5625 5.25 3.5625 6 6 C4.02 6.33 2.04 6.66 0 7 C0.99 6.67 1.98 6.34 3 6 C2.01 5.34 1.02 4.68 0 4 C0 2.68 0 1.36 0 0 Z " fill="#0F0F10" transform="translate(352,828)"/>
<path d="M0 0 C0.66 0 1.32 0 2 0 C3.2890625 1.75 3.2890625 1.75 4.625 4 C5.07101562 4.7425 5.51703125 5.485 5.9765625 6.25 C6.31429687 6.8275 6.65203125 7.405 7 8 C5.68 8 4.36 8 3 8 C0.77810176 5.77810176 0.07401108 3.91517292 -1 1 C-0.67 0.67 -0.34 0.34 0 0 Z " fill="#EEEEF0" transform="translate(513,820)"/>
<path d="M0 0 C4.75 0.75 4.75 0.75 7 3 C5.1875 4.5625 5.1875 4.5625 3 6 C2.01 5.67 1.02 5.34 0 5 C0 3.35 0 1.7 0 0 Z " fill="#0B0C0D" transform="translate(764,816)"/>
<path d="M0 0 C1.32 0.33 2.64 0.66 4 1 C4 1.66 4 2.32 4 3 C4.66 3 5.32 3 6 3 C6 4.65 6 6.3 6 8 C5.01 8.495 5.01 8.495 4 9 C2.68 6.03 1.36 3.06 0 0 Z " fill="#E3E3E3" transform="translate(344,807)"/>
<path d="M0 0 C0.66 0 1.32 0 2 0 C2.33 0.66 2.66 1.32 3 2 C3.99 1.67 4.98 1.34 6 1 C5.67 3.31 5.34 5.62 5 8 C4.34 8 3.68 8 3 8 C2.01 5.36 1.02 2.72 0 0 Z " fill="#EFEFEF" transform="translate(327,769)"/>
<path d="M0 0 C0.66 0.33 1.32 0.66 2 1 C1.67 1.66 1.34 2.32 1 3 C0.34 2.34 -0.32 1.68 -1 1 C-0.67 0.67 -0.34 0.34 0 0 Z M-4 2 C-3.01 2.33 -2.02 2.66 -1 3 C-1.33 4.32 -1.66 5.64 -2 7 C-3.32 6.67 -4.64 6.34 -6 6 C-5.34 4.68 -4.68 3.36 -4 2 Z M-7 7 C-4 8 -4 8 -4 8 Z " fill="#EDEEEE" transform="translate(346,389)"/>
<path d="M0 0 C2.75 0.8125 2.75 0.8125 5 2 C4.01 2.495 4.01 2.495 3 3 C2.67 3.99 2.34 4.98 2 6 C1.67 5.34 1.34 4.68 1 4 C-1.52733235 3.34444881 -1.52733235 3.34444881 -4 3 C-2.3125 1.375 -2.3125 1.375 0 0 Z " fill="#F0F0F0" transform="translate(924,385)"/>
<path d="M0 0 C1.1446875 0.3403125 1.1446875 0.3403125 2.3125 0.6875 C-0.37591859 2.93995881 -2.33391875 4.56963958 -5.6875 5.6875 C-5.6875 2.6875 -5.6875 2.6875 -4.5 0.9375 C-2.6875 -0.3125 -2.6875 -0.3125 0 0 Z " fill="#101010" transform="translate(527.6875,282.3125)"/>
<path d="M0 0 C0.66 0.66 1.32 1.32 2 2 C0.02 4.97 0.02 4.97 -2 8 C-4.475 7.01 -4.475 7.01 -7 6 C-7 5.34 -7 4.68 -7 4 C-5.02 3.67 -3.04 3.34 -1 3 C-1.33 2.34 -1.66 1.68 -2 1 C-1.34 0.67 -0.68 0.34 0 0 Z " fill="#0C0E0D" transform="translate(718,256)"/>
<path d="M0 0 C2.475 0.99 2.475 0.99 5 2 C4.67 2.99 4.34 3.98 4 5 C2.35 5.33 0.7 5.66 -1 6 C-1.042721 4.33388095 -1.04063832 2.66617115 -1 1 C-0.67 0.67 -0.34 0.34 0 0 Z " fill="#F3F3F3" transform="translate(701,256)"/>
<path d="M0 0 C2.475 0.99 2.475 0.99 5 2 C4.67 2.66 4.34 3.32 4 4 C3.01 4.33 2.02 4.66 1 5 C0.34 5.66 -0.32 6.32 -1 7 C-1.66 6.34 -2.32 5.68 -3 5 C-2.505 4.54625 -2.01 4.0925 -1.5 3.625 C0.22609337 2.12364481 0.22609337 2.12364481 0 0 Z " fill="#111113" transform="translate(587,1032)"/>
<path d="M0 0 C2.4375 0.75 2.4375 0.75 5 2 C5.8125 4.125 5.8125 4.125 6 6 C5.01 6.495 5.01 6.495 4 7 C1.49962266 4.82575883 0.56371414 3.26954202 0 0 Z " fill="#101010" transform="translate(488,976)"/>
<path d="M0 0 C0.66 0.66 1.32 1.32 2 2 C1.625 4.125 1.625 4.125 1 6 C-0.875 6.625 -0.875 6.625 -3 7 C-3.66 6.34 -4.32 5.68 -5 5 C-3.35 3.35 -1.7 1.7 0 0 Z " fill="#EDEEEE" transform="translate(697,897)"/>
<path d="M0 0 C0.33 0 0.66 0 1 0 C1.25 2.25 1.25 2.25 1 5 C-1 7.3125 -1 7.3125 -3 9 C-3.99 8.34 -4.98 7.68 -6 7 C-5.02433888 5.83040013 -4.044375 4.66438823 -3.0625 3.5 C-2.51722656 2.8503125 -1.97195313 2.200625 -1.41015625 1.53125 C-0.71212891 0.77328125 -0.71212891 0.77328125 0 0 Z " fill="#1A1A1C" transform="translate(878,895)"/>
<path d="M0 0 C-0.33 0.66 -0.66 1.32 -1 2 C-0.67 2.33 -0.34 2.66 0 3 C-0.99 4.485 -0.99 4.485 -2 6 C-2.66 6 -3.32 6 -4 6 C-4.66 4.02 -5.32 2.04 -6 0 C-2.25 -1.125 -2.25 -1.125 0 0 Z " fill="#111312" transform="translate(694,897)"/>
<path d="M0 0 C0.99 1.32 1.98 2.64 3 4 C-0.18762365 6.12508244 -2.26512223 6.5020163 -6 7 C-5.34 6.01 -4.68 5.02 -4 4 C-3.34 4 -2.68 4 -2 4 C-1.34 2.68 -0.68 1.36 0 0 Z " fill="#EBECED" transform="translate(733,863)"/>
<path d="M0 0 C0.66 0.33 1.32 0.66 2 1 C1.67 2.32 1.34 3.64 1 5 C-0.8125 5.625 -0.8125 5.625 -3 6 C-3.99 5.34 -4.98 4.68 -6 4 C-4.02 2.68 -2.04 1.36 0 0 Z " fill="#171719" transform="translate(526,495)"/>
<path d="M0 0 C2 1 2 1 5 3 C3.47764564 6.04470873 0.81575514 7.20270948 -2 9 C-1.34 6.03 -0.68 3.06 0 0 Z " fill="#F1F1F1" transform="translate(280,458)"/>
<path d="M0 0 C5.75 0.75 5.75 0.75 8 3 C7.01 3.33 6.02 3.66 5 4 C4.34 4.66 3.68 5.32 3 6 C2.01 5.34 1.02 4.68 0 4 C0.33 3.34 0.66 2.68 1 2 C0.67 1.67 0.34 1.34 0 1 C0 0.67 0 0.34 0 0 Z " fill="#EFEFEF" transform="translate(811,321)"/>
<path d="M0 0 C0.99 0.99 1.98 1.98 3 3 C0.94766315 5.2477975 -0.00667261 6.0022242 -3 7 C-3 3 -3 3 -1.5 1.25 C-1.005 0.8375 -0.51 0.425 0 0 Z " fill="#0F1010" transform="translate(513,288)"/>
<path d="M0 0 C0.66 0.66 1.32 1.32 2 2 C1.071875 2.185625 1.071875 2.185625 0.125 2.375 C-2.19120832 2.87197356 -2.19120832 2.87197356 -4 5 C-5.65 3.68 -7.3 2.36 -9 1 C-5.75778445 -0.08073852 -3.39597063 -0.21676408 0 0 Z " fill="#0F100F" transform="translate(713,256)"/>
<path d="M0 0 C1.134375 0.020625 2.26875 0.04125 3.4375 0.0625 C3.4375 3.0625 3.4375 3.0625 2.4375 5.0625 C-0.47767292 3.98848892 -2.34060176 3.28439824 -4.5625 1.0625 C-3.5625 0.0625 -3.5625 0.0625 0 0 Z " fill="#E8E8E8" transform="translate(546.5625,1008.9375)"/>
<path d="M0 0 C0.66 0.66 1.32 1.32 2 2 C0.68 3.32 -0.64 4.64 -2 6 C-3.32 5.34 -4.64 4.68 -6 4 C-4.02 2.68 -2.04 1.36 0 0 Z " fill="#111113" transform="translate(765,994)"/>
<path d="M0 0 C0.66 0.33 1.32 0.66 2 1 C2.625 3.5625 2.625 3.5625 3 6 C0 6 0 6 -2.1875 4 C-2.785625 3.34 -3.38375 2.68 -4 2 C-2.125 0.9375 -2.125 0.9375 0 0 Z " fill="#EAEAE8" transform="translate(497,976)"/>
<path d="M0 0 C1.65 1.32 3.3 2.64 5 4 C1.86650268 5.04449911 1.01031744 4.93423645 -2 4 C-2.33 4.66 -2.66 5.32 -3 6 C-2.625 3.5625 -2.625 3.5625 -2 1 C-1.34 0.67 -0.68 0.34 0 0 Z " fill="#ECECEC" transform="translate(619,927)"/>
<path d="M0 0 C2.97 1.98 2.97 1.98 6 4 C5.34 4.66 4.68 5.32 4 6 C3.34 5.67 2.68 5.34 2 5 C1.67 5.66 1.34 6.32 1 7 C0.67 5.68 0.34 4.36 0 3 C-0.66 3 -1.32 3 -2 3 C-1 1 -1 1 0 0 Z " fill="#F1F1F1" transform="translate(611,921)"/>
<path d="M0 0 C2 2 2 2 2 6 C-0.97 5.505 -0.97 5.505 -4 5 C-3 2 -3 2 0 0 Z " fill="#F0F2F1" transform="translate(677,914)"/>
<path d="M0 0 C1.32 0.66 2.64 1.32 4 2 C3.34 3.65 2.68 5.3 2 7 C0.68 7 -0.64 7 -2 7 C-1.34 4.69 -0.68 2.38 0 0 Z " fill="#171717" transform="translate(945,785)"/>
<path d="M0 0 C1.9451 2.91765 2.45276317 4.62537285 3 8 C2.01 8.495 2.01 8.495 1 9 C-0.5625 7.75 -0.5625 7.75 -2 6 C-1.7181953 3.67511119 -1.04553582 2.09107165 0 0 Z " fill="#EBEBEB" transform="translate(478,751)"/>
<path d="M0 0 C1.32 0 2.64 0 4 0 C3.67 1.98 3.34 3.96 3 6 C2.01 6 1.02 6 0 6 C0 5.34 0 4.68 0 4 C-0.66 3.67 -1.32 3.34 -2 3 C-1.34 2.01 -0.68 1.02 0 0 Z " fill="#F3F5F4" transform="translate(971,706)"/>
<path d="M0 0 C2.475 0.99 2.475 0.99 5 2 C4.67 2.99 4.34 3.98 4 5 C2.35 4.67 0.7 4.34 -1 4 C-0.67 2.68 -0.34 1.36 0 0 Z " fill="#101010" transform="translate(717,474)"/>
<path d="M0 0 C2.93453261 0.36681658 3.86437246 0.86437246 6 3 C4.02 3.66 2.04 4.32 0 5 C-0.66 4.01 -1.32 3.02 -2 2 C-1.34 1.34 -0.68 0.68 0 0 Z " fill="#0B0B0B" transform="translate(298,417)"/>
<path d="M0 0 C0.185625 0.8971875 0.185625 0.8971875 0.375 1.8125 C0.95475985 4.26231348 0.95475985 4.26231348 3 7 C2.01 7.33 1.02 7.66 0 8 C-0.99 7.34 -1.98 6.68 -3 6 C-2.42655063 3.13275314 -2.1385485 2.1385485 0 0 Z " fill="#111012" transform="translate(881,352)"/>
<path d="M0 0 C1.98 0.99 3.96 1.98 6 3 C5.34 4.65 4.68 6.3 4 8 C3.01 7.34 2.02 6.68 1 6 C1.66 6 2.32 6 3 6 C3 5.34 3 4.68 3 4 C1.68 3.34 0.36 2.68 -1 2 C-0.67 1.34 -0.34 0.68 0 0 Z " fill="#F1F3F2" transform="translate(785,304)"/>
<path d="M0 0 C1.32 1.65 2.64 3.3 4 5 C3.236875 4.79375 2.47375 4.5875 1.6875 4.375 C-1.21885944 3.66608797 -1.21885944 3.66608797 -4 6 C-4.99 5.34 -5.98 4.68 -7 4 C-4.69 2.68 -2.38 1.36 0 0 Z " fill="#EAECEB" transform="translate(573,258)"/>
<path d="M0 0 C1.5 1.375 1.5 1.375 3 3 C3 3.66 3 4.32 3 5 C3.66 5 4.32 5 5 5 C4.67 5.99 4.34 6.98 4 8 C2.02 6.35 0.04 4.7 -2 3 C-1.34 2.67 -0.68 2.34 0 2 C0 1.34 0 0.68 0 0 Z " fill="#E6E8E7" transform="translate(427,921)"/>
<path d="M0 0 C0.66 0.33 1.32 0.66 2 1 C1.67 2.98 1.34 4.96 1 7 C-0.65 6.67 -2.3 6.34 -4 6 C-2.68 4.02 -1.36 2.04 0 0 Z " fill="#0F0F11" transform="translate(883,889)"/>
<path d="M0 0 C0.66 0.66 1.32 1.32 2 2 C0.35 3.98 -1.3 5.96 -3 8 C-3.99 7.34 -4.98 6.68 -6 6 C-4 3 -4 3 -1 2 C-0.67 1.34 -0.34 0.68 0 0 Z " fill="#E3E3E4" transform="translate(883,886)"/>
<path d="M0 0 C1 4 1 4 -0.9375 7.25 C-1.618125 8.1575 -2.29875 9.065 -3 10 C-3.99 9.67 -4.98 9.34 -6 9 C-4.02 6.03 -2.04 3.06 0 0 Z " fill="#171719" transform="translate(911,849)"/>
<path d="M0 0 C0.99 0.33 1.98 0.66 3 1 C2.67 2.65 2.34 4.3 2 6 C1.01 6 0.02 6 -1 6 C-1.042721 4.33388095 -1.04063832 2.66617115 -1 1 C-0.67 0.67 -0.34 0.34 0 0 Z " fill="#F5F5F5" transform="translate(323,752)"/>
<path d="M0 0 C2.475 0.495 2.475 0.495 5 1 C5 1.99 5 2.98 5 4 C4.01 4.495 4.01 4.495 3 5 C3.33 5.66 3.66 6.32 4 7 C3.01 6.67 2.02 6.34 1 6 C0.67 4.02 0.34 2.04 0 0 Z " fill="#EEF0EF" transform="translate(312,728)"/>
<path d="M0 0 C3.62528568 -0.20140476 5.86501708 0.14223235 9 2 C8.67 2.66 8.34 3.32 8 4 C5.125 4.125 5.125 4.125 2 4 C1.34 3.34 0.68 2.68 0 2 C0 1.34 0 0.68 0 0 Z " fill="#0A0A0C" transform="translate(518,500)"/>
<path d="M0 0 C1.98 0.66 3.96 1.32 6 2 C5.625 3.9375 5.625 3.9375 5 6 C4.01 6.495 4.01 6.495 3 7 C2.01 4.69 1.02 2.38 0 0 Z " fill="#131313" transform="translate(994,447)"/>
<path d="M0 0 C0.99 0.99 1.98 1.98 3 3 C2.01 3.33 1.02 3.66 0 4 C0.66 4.33 1.32 4.66 2 5 C1.67 5.66 1.34 6.32 1 7 C-0.32 6.34 -1.64 5.68 -3 5 C-1.125 1.125 -1.125 1.125 0 0 Z " fill="#EAEAEA" transform="translate(973,417)"/>
<path d="M0 0 C0.86625 0.556875 0.86625 0.556875 1.75 1.125 C-0.23 2.115 -0.23 2.115 -2.25 3.125 C-2.25 3.785 -2.25 4.445 -2.25 5.125 C-2.91 5.125 -3.57 5.125 -4.25 5.125 C-4.91 3.805 -5.57 2.485 -6.25 1.125 C-2.80384615 -1.09038462 -2.80384615 -1.09038462 0 0 Z " fill="#F2F4F3" transform="translate(378.25,372.875)"/>
<path d="M0 0 C0.66 0.33 1.32 0.66 2 1 C1.34 2.98 0.68 4.96 0 7 C-1.65 5.68 -3.3 4.36 -5 3 C-2.625 1.4375 -2.625 1.4375 0 0 Z " fill="#EEF0EF" transform="translate(383,368)"/>
<path d="M0 0 C-0.33 1.32 -0.66 2.64 -1 4 C-2.32 3.67 -3.64 3.34 -5 3 C-5 3.66 -5 4.32 -5 5 C-6.32 4.34 -7.64 3.68 -9 3 C-2.25 0 -2.25 0 0 0 Z " fill="#1A1A1A" transform="translate(712,1024)"/>
<path d="M0 0 C0.99 1.32 1.98 2.64 3 4 C1.68 4.99 0.36 5.98 -1 7 C-1.33 6.34 -1.66 5.68 -2 5 C-2.66 4.67 -3.32 4.34 -4 4 C-3.34 4 -2.68 4 -2 4 C-2 3.34 -2 2.68 -2 2 C-1.34 2 -0.68 2 0 2 C0 1.34 0 0.68 0 0 Z " fill="#EBEBEB" transform="translate(716,1016)"/>
<path d="M0 0 C0.66 0.33 1.32 0.66 2 1 C2.75 3.4375 2.75 3.4375 3 6 C2.34 6.66 1.68 7.32 1 8 C-2 4.25 -2 4.25 -2 2 C-1.34 2 -0.68 2 0 2 C0 1.34 0 0.68 0 0 Z " fill="#EDEFEE" transform="translate(405,896)"/>
<path d="M0 0 C4.875 4.75 4.875 4.75 6 7 C4.68 7 3.36 7 2 7 C-0.13324818 4.86675182 -0.53238345 3.8992226 -1 1 C-0.67 0.67 -0.34 0.34 0 0 Z " fill="#111113" transform="translate(393,888)"/>
<path d="M0 0 C0.66 0.66 1.32 1.32 2 2 C1.3503125 2.5878125 1.3503125 2.5878125 0.6875 3.1875 C-1.14560261 5.02238902 -1.14560261 5.02238902 -2.5625 7.6875 C-3.2740625 8.8321875 -3.2740625 8.8321875 -4 10 C-4.66 10 -5.32 10 -6 10 C-4.34832443 6.4213696 -2.21713508 3.25179812 0 0 Z " fill="#1C1C1D" transform="translate(891,878)"/>
<path d="M0 0 C0.66 0.33 1.32 0.66 2 1 C1.67 2.65 1.34 4.3 1 6 C-0.32 6.33 -1.64 6.66 -3 7 C-1.125 1.125 -1.125 1.125 0 0 Z " fill="#1A1A1A" transform="translate(933,811)"/>
<path d="M0 0 C1.875 0.1875 1.875 0.1875 4 1 C5.25 3.5625 5.25 3.5625 6 6 C4.125 5.8125 4.125 5.8125 2 5 C0.75 2.4375 0.75 2.4375 0 0 Z " fill="#0D0D0F" transform="translate(494,786)"/>
<path d="M0 0 C1.99097846 2.98646769 2.94124926 5.59687262 4 9 C3.34 9.66 2.68 10.32 2 11 C-1.07692308 4.6 -1.07692308 4.6 -0.6875 1.5625 C-0.460625 1.046875 -0.23375 0.53125 0 0 Z " fill="#151517" transform="translate(313,734)"/>
<path d="M0 0 C1.2077558 3.62326739 0.54311128 4.64146369 -1 8 C-1.99 7.67 -2.98 7.34 -4 7 C-3.43628586 3.73045798 -2.50037734 2.17424117 0 0 Z " fill="#0D0D0D" transform="translate(814,725)"/>
<path d="M0 0 C0.66 0.66 1.32 1.32 2 2 C-0.3125 3.5625 -0.3125 3.5625 -3 5 C-3.99 4.67 -4.98 4.34 -6 4 C-6 3.34 -6 2.68 -6 2 C-4.02 1.34 -2.04 0.68 0 0 Z " fill="#E6E6E7" transform="translate(547,481)"/>
<path d="M0 0 C0.66 0.33 1.32 0.66 2 1 C2.625 3.5625 2.625 3.5625 3 6 C2.01 6.33 1.02 6.66 0 7 C-0.66 6.34 -1.32 5.68 -2 5 C-2 4.01 -2 3.02 -2 2 C-1.34 2 -0.68 2 0 2 C0 1.34 0 0.68 0 0 Z " fill="#F4F4F3" transform="translate(539,481)"/>
<path d="M0 0 C-1.28965176 1.37562854 -2.62689293 2.70766393 -4 4 C-4.66 4 -5.32 4 -6 4 C-6.33 2.68 -6.66 1.36 -7 0 C-3.98968256 -0.93423645 -3.13349732 -1.04449911 0 0 Z " fill="#0C0C0E" transform="translate(603,460)"/>
<path d="M0 0 C1.65 0.99 3.3 1.98 5 3 C4.01 4.485 4.01 4.485 3 6 C1.68 5.67 0.36 5.34 -1 5 C-0.67 4.67 -0.34 4.34 0 4 C-0.33 3.34 -0.66 2.68 -1 2 C-0.67 1.34 -0.34 0.68 0 0 Z " fill="#F1F3F2" transform="translate(953,401)"/>
<path d="M0 0 C1.32 0.66 2.64 1.32 4 2 C2.71034824 3.37562854 1.37310707 4.70766393 0 6 C-0.66 6 -1.32 6 -2 6 C-2 4.68 -2 3.36 -2 2 C-1.34 2 -0.68 2 0 2 C0 1.34 0 0.68 0 0 Z " fill="#ECEEED" transform="translate(939,393)"/>
<path d="M0 0 C0 0.66 0 1.32 0 2 C-1.98 2.66 -3.96 3.32 -6 4 C-6 2.68 -6 1.36 -6 0 C-3 -1 -3 -1 0 0 Z " fill="#EAEAEC" transform="translate(703,1026)"/>
<path d="M0 0 C1.65 0 3.3 0 5 0 C5 0.66 5 1.32 5 2 C5.99 2.33 6.98 2.66 8 3 C7.67 3.66 7.34 4.32 7 5 C4.69 4.01 2.38 3.02 0 2 C0 1.34 0 0.68 0 0 Z " fill="#E9E9EB" transform="translate(576,1026)"/>
<path d="M0 0 C5.75 0.75 5.75 0.75 8 3 C7.34 3 6.68 3 6 3 C5.67 3.66 5.34 4.32 5 5 C5 4.34 5 3.68 5 3 C4.01 3.33 3.02 3.66 2 4 C2 3.34 2 2.68 2 2 C1.34 2 0.68 2 0 2 C0 1.34 0 0.68 0 0 Z " fill="#101010" transform="translate(553,1018)"/>
<path d="M0 0 C0.99 0.33 1.98 0.66 3 1 C2.67 2.32 2.34 3.64 2 5 C-0.97 4.505 -0.97 4.505 -4 4 C-2.68 2.68 -1.36 1.36 0 0 Z " fill="#151516" transform="translate(800,970)"/>
<path d="M0 0 C0.99 0.33 1.98 0.66 3 1 C2.34 2.65 1.68 4.3 1 6 C-0.32 6 -1.64 6 -3 6 C-2 4 -2 4 0 3 C-0.66 2.34 -1.32 1.68 -2 1 C-1.34 0.67 -0.68 0.34 0 0 Z " fill="#0D0D0D" transform="translate(659,922)"/>
<path d="M0 0 C0.99 0.33 1.98 0.66 3 1 C3.6875 3.0625 3.6875 3.0625 4 5 C2.35 5.66 0.7 6.32 -1 7 C-0.67 4.69 -0.34 2.38 0 0 Z " fill="#F5F6F6" transform="translate(581,897)"/>
<path d="M0 0 C1.32 0.33 2.64 0.66 4 1 C2.35 2.65 0.7 4.3 -1 6 C-1.33 5.01 -1.66 4.02 -2 3 C-1.34 2.01 -0.68 1.02 0 0 Z " fill="#EBEBEC" transform="translate(874,895)"/>
<path d="M0 0 C0.66 0 1.32 0 2 0 C2.33 2.31 2.66 4.62 3 7 C1.68 6.67 0.36 6.34 -1 6 C-1.042721 4.33388095 -1.04063832 2.66617115 -1 1 C-0.67 0.67 -0.34 0.34 0 0 Z " fill="#08080A" transform="translate(378,871)"/>
<path d="M0 0 C2.375 0.25 2.375 0.25 5 1 C6.3125 3.0625 6.3125 3.0625 7 5 C3 5 3 5 1 4 C0.375 1.9375 0.375 1.9375 0 0 Z " fill="#0E0F11" transform="translate(721,864)"/>
<path d="M0 0 C1.65 0 3.3 0 5 0 C4.01 1.98 3.02 3.96 2 6 C1.01 5.01 0.02 4.02 -1 3 C-0.67 2.01 -0.34 1.02 0 0 Z " fill="#F3F3F4" transform="translate(905,851)"/>
<path d="M0 0 C0.99 0.33 1.98 0.66 3 1 C2.67 1.99 2.34 2.98 2 4 C2.66 4.33 3.32 4.66 4 5 C3.01 6.32 2.02 7.64 1 9 C-0.06546953 5.8035914 -0.07427838 3.34252724 0 0 Z " fill="#101014" transform="translate(800,755)"/>
<path d="M0 0 C1.74627478 2.61941217 2.38722388 4.03824877 3 7 C1.35 7 -0.3 7 -2 7 C-1.125 2.25 -1.125 2.25 0 0 Z " fill="#E3E3E4" transform="translate(474,739)"/>
<path d="M0 0 C1.65 1.32 3.3 2.64 5 4 C4.34 5.65 3.68 7.3 3 9 C0.87491756 5.81237635 0.4979837 3.73487777 0 0 Z " fill="#0A0A0C" transform="translate(473,733)"/>
<path d="M0 0 C0.99 0 1.98 0 3 0 C2.67 2.31 2.34 4.62 2 7 C1.01 7.33 0.02 7.66 -1 8 C-0.67 5.36 -0.34 2.72 0 0 Z " fill="#E9E9EA" transform="translate(820,700)"/>
<path d="M0 0 C0.66 0.33 1.32 0.66 2 1 C1.34 2.32 0.68 3.64 0 5 C-1.98 5 -3.96 5 -6 5 C-5.195625 4.360625 -4.39125 3.72125 -3.5625 3.0625 C-1.7249496 1.59396498 -1.7249496 1.59396498 0 0 Z " fill="#EAEBEA" transform="translate(324,402)"/>
<path d="M0 0 C0.99 0.33 1.98 0.66 3 1 C3.33 2.65 3.66 4.3 4 6 C2.35 5.67 0.7 5.34 -1 5 C-0.67 3.35 -0.34 1.7 0 0 Z " fill="#F5F6F7" transform="translate(882,362)"/>
<path d="M0 0 C0 3 0 3 -1.25 4.75 C-3 6 -3 6 -5.1875 5.6875 C-5.785625 5.460625 -6.38375 5.23375 -7 5 C-2.25 1.125 -2.25 1.125 0 0 Z " fill="#F0F0F0" transform="translate(532,282)"/>
<path d="M0 0 C1.67542976 0.28604898 3.34385343 0.61781233 5 1 C2.82575883 3.50037734 1.26954202 4.43628586 -2 5 C-1.125 1.125 -1.125 1.125 0 0 Z " fill="#0C0B10" transform="translate(554,265)"/>
<path d="M0 0 C1.65 0 3.3 0 5 0 C4.34 1.32 3.68 2.64 3 4 C1.68 3.67 0.36 3.34 -1 3 C-0.67 2.01 -0.34 1.02 0 0 Z " fill="#0D0E10" transform="translate(774,988)"/>
<path d="M0 0 C0.66 1.32 1.32 2.64 2 4 C1.34 4.66 0.68 5.32 0 6 C-1.32 5.01 -2.64 4.02 -4 3 C-2.68 2.01 -1.36 1.02 0 0 Z " fill="#121214" transform="translate(806,966)"/>
<path d="M0 0 C5.75 1.75 5.75 1.75 8 4 C7.67 4.99 7.34 5.98 7 7 C5.83040013 6.02433888 4.66438823 5.044375 3.5 4.0625 C2.8503125 3.51722656 2.200625 2.97195313 1.53125 2.41015625 C1.0259375 1.94480469 0.520625 1.47945312 0 1 C0 0.67 0 0.34 0 0 Z " fill="#E9E9EA" transform="translate(458,952)"/>
<path d="M0 0 C2 1.375 2 1.375 4 3 C4 3.66 4 4.32 4 5 C3.34 5 2.68 5 2 5 C1.67 5.66 1.34 6.32 1 7 C-1 4 -1 4 -0.625 1.8125 C-0.41875 1.214375 -0.2125 0.61625 0 0 Z " fill="#EAEAEA" transform="translate(576,891)"/>
<path d="M0 0 C0.66 0 1.32 0 2 0 C2 0.66 2 1.32 2 2 C2.99 2.33 3.98 2.66 5 3 C4.34 4.32 3.68 5.64 3 7 C1.68 5.35 0.36 3.7 -1 2 C-0.67 1.34 -0.34 0.68 0 0 Z " fill="#19191A" transform="translate(505,803)"/>
<path d="M0 0 C2 3 2 3 3 6 C1.68 6.33 0.36 6.66 -1 7 C-1.625 4.625 -1.625 4.625 -2 2 C-1.34 1.34 -0.68 0.68 0 0 Z " fill="#131315" transform="translate(317,745)"/>
<path d="M0 0 C0.33 0 0.66 0 1 0 C1.33 1.98 1.66 3.96 2 6 C0.02 6 -1.96 6 -4 6 C-3.67 4.35 -3.34 2.7 -3 1 C-2.34 1.66 -1.68 2.32 -1 3 C-0.67 2.01 -0.34 1.02 0 0 Z " fill="#171719" transform="translate(980,698)"/>
<path d="M0 0 C1.32 0.66 2.64 1.32 4 2 C2.68 3.32 1.36 4.64 0 6 C-0.66 5.34 -1.32 4.68 -2 4 C-1.34 2.68 -0.68 1.36 0 0 Z " fill="#F2F4F3" transform="translate(898,370)"/>
<path d="M0 0 C0 0.66 0 1.32 0 2 C-1.32 2 -2.64 2 -4 2 C-4 2.66 -4 3.32 -4 4 C-4.99 4 -5.98 4 -7 4 C-7 3.01 -7 2.02 -7 1 C-4 0 -4 0 0 0 Z " fill="#181A19" transform="translate(688,1034)"/>
<path d="M0 0 C2.86724686 0.57344937 3.8614515 0.8614515 6 3 C6 3.66 6 4.32 6 5 C4.35 4.67 2.7 4.34 1 4 C0.67 2.68 0.34 1.36 0 0 Z " fill="#F5F5F7" transform="translate(580,1024)"/>
<path d="M0 0 C1 3.875 1 3.875 1 5 C-0.65 5 -2.3 5 -4 5 C-4 4.01 -4 3.02 -4 2 C-2.68 1.34 -1.36 0.68 0 0 Z " fill="#171717" transform="translate(752,1002)"/>
<path d="M0 0 C0.99 1.32 1.98 2.64 3 4 C1.02 4.99 1.02 4.99 -1 6 C-1.66 5.34 -2.32 4.68 -3 4 C-3 3.34 -3 2.68 -3 2 C-2.01 1.34 -1.02 0.68 0 0 Z " fill="#EEEEEE" transform="translate(747,1000)"/>
<path d="M0 0 C0.66 0.66 1.32 1.32 2 2 C1.67 2.99 1.34 3.98 1 5 C-1.0625 5.6875 -1.0625 5.6875 -3 6 C-3 3 -3 3 -1.5 1.3125 C-0.7575 0.6628125 -0.7575 0.6628125 0 0 Z " fill="#E3E4E6" transform="translate(724,872)"/>
<path d="M0 0 C1.32 0.33 2.64 0.66 4 1 C2.515 3.475 2.515 3.475 1 6 C0.01 5.34 -0.98 4.68 -2 4 C-1.34 2.68 -0.68 1.36 0 0 Z " fill="#F4F4F4" transform="translate(538,854)"/>
<path d="M0 0 C0.33 0.66 0.66 1.32 1 2 C1.66 2.33 2.32 2.66 3 3 C2.67 3.66 2.34 4.32 2 5 C1.34 5 0.68 5 0 5 C-0.33 5.66 -0.66 6.32 -1 7 C-1.625 4.625 -1.625 4.625 -2 2 C-1.34 1.34 -0.68 0.68 0 0 Z " fill="#080A09" transform="translate(738,848)"/>
<path d="M0 0 C2 3 2 3 1.625 5.1875 C1.41875 5.785625 1.2125 6.38375 1 7 C-0.32 5.68 -1.64 4.36 -3 3 C-2.01 2.01 -1.02 1.02 0 0 Z " fill="#F0F1F2" transform="translate(317,734)"/>
<path d="M0 0 C1.485 0.99 1.485 0.99 3 2 C2.67 3.98 2.34 5.96 2 8 C1.01 7.67 0.02 7.34 -1 7 C-0.67 4.69 -0.34 2.38 0 0 Z " fill="#F2F2F2" transform="translate(986,652)"/>
<path d="M0 0 C1.485 0.99 1.485 0.99 3 2 C2.67 3.98 2.34 5.96 2 8 C0 6 0 6 -0.125 2.875 C-0.08375 1.92625 -0.0425 0.9775 0 0 Z " fill="#161518" transform="translate(1004,480)"/>
<path d="M0 0 C0.99 0.99 1.98 1.98 3 3 C2.34 3 1.68 3 1 3 C1 3.66 1 4.32 1 5 C-1.475 4.01 -1.475 4.01 -4 3 C-2.68 2.01 -1.36 1.02 0 0 Z " fill="#EFF1F0" transform="translate(565,263)"/>
<path d="M0 0 C2.31 0 4.62 0 7 0 C5.8125 1.5 5.8125 1.5 4 3 C1.3125 3.1875 1.3125 3.1875 -1 3 C-0.67 2.01 -0.34 1.02 0 0 Z " fill="#050706" transform="translate(711,258)"/>
</svg>
